<svg width="15" height="14" viewBox="0 0 15 14" fill="none" xmlns="http://www.w3.org/2000/svg">
<path d="M8.38867 1.09375L7.70117 0.40625C7.38867 0.125 6.91992 0.125 6.63867 0.40625L0.544922 6.46875C0.263672 6.78125 0.263672 7.25 0.544922 7.53125L6.63867 13.625C6.91992 13.9062 7.38867 13.9062 7.70117 13.625L8.38867 12.9375C8.66992 12.625 8.66992 12.1562 8.38867 11.8438L4.60742 8.25H13.5762C14.0137 8.25 14.3262 7.9375 14.3262 7.5V6.5C14.3262 6.09375 14.0137 5.75 13.5762 5.75H4.60742L8.38867 2.1875C8.66992 1.875 8.70117 1.40625 8.38867 1.09375Z" fill="#25B8E4"/>
</svg>
