<svg width="14" height="13" viewBox="0 0 14 13" fill="none" xmlns="http://www.w3.org/2000/svg">
<path d="M6.07031 1.08203L6.67188 0.480469C6.94531 0.234375 7.35547 0.234375 7.60156 0.480469L12.9336 5.78516C13.1797 6.05859 13.1797 6.46875 12.9336 6.71484L7.60156 12.0469C7.35547 12.293 6.94531 12.293 6.67188 12.0469L6.07031 11.4453C5.82422 11.1719 5.82422 10.7617 6.07031 10.4883L9.37891 7.34375H1.53125C1.14844 7.34375 0.875 7.07031 0.875 6.6875V5.8125C0.875 5.45703 1.14844 5.15625 1.53125 5.15625H9.37891L6.07031 2.03906C5.82422 1.76562 5.79688 1.35547 6.07031 1.08203Z" fill="#25B8E4"/>
</svg>
