<svg width="140" height="45" viewBox="0 0 140 45" fill="none" xmlns="http://www.w3.org/2000/svg">
<path d="M90.6373 44.2763L90.7454 43.1952C91.2239 43.4578 91.687 43.5813 92.1192 43.5813C92.397 43.5813 92.644 43.5195 92.86 43.3651C93.0761 43.2261 93.1842 43.0254 93.1842 42.7474C93.1842 42.4694 93.0916 42.2841 92.9218 42.1605C92.7366 42.037 92.4124 41.8825 91.9494 41.6818C91.4709 41.481 91.1313 41.2494 90.8843 41.0023C90.6528 40.7552 90.5293 40.4 90.5293 39.9367C90.5293 39.5506 90.6219 39.2263 90.8226 38.9638C91.0232 38.7012 91.2856 38.5159 91.6098 38.3923C91.9339 38.2688 92.2889 38.207 92.6748 38.207C93.1842 38.207 93.6627 38.2842 94.1258 38.4387L94.0177 39.4425C93.5701 39.2417 93.1533 39.1336 92.7674 39.1336C92.505 39.1336 92.2735 39.1954 92.0883 39.3035C91.903 39.4116 91.795 39.5969 91.795 39.8595C91.795 40.122 91.8722 40.261 92.0111 40.3537C92.15 40.4463 92.4896 40.6007 92.999 40.8324C93.5083 41.064 93.8942 41.2957 94.1258 41.5582C94.3727 41.8208 94.4962 42.176 94.4962 42.6393C94.4962 42.9636 94.4345 43.257 94.311 43.4887C94.1875 43.7357 94.0177 43.9211 93.8016 44.0755C93.5855 44.2299 93.3386 44.338 93.0607 44.4153C92.7829 44.4925 92.4896 44.5234 92.1809 44.5234C91.687 44.5234 91.1776 44.4307 90.6373 44.2454V44.2763Z" fill="white"/>
<path d="M100.409 44.3993H99.1895V41.9747L96.9668 38.3301H98.4023L99.6989 40.6003C99.7452 40.6775 99.7915 40.7701 99.8378 40.8782C99.8687 40.801 99.915 40.7084 99.9613 40.6003L101.289 38.3301H102.601L100.409 41.9438V44.3993Z" fill="white"/>
<path d="M105.286 44.2763L105.394 43.1952C105.872 43.4578 106.335 43.5813 106.768 43.5813C107.045 43.5813 107.292 43.5195 107.508 43.3651C107.725 43.2261 107.833 43.0254 107.833 42.7474C107.833 42.4694 107.74 42.2841 107.57 42.1605C107.385 42.037 107.061 41.8825 106.598 41.6818C106.119 41.481 105.78 41.2494 105.533 41.0023C105.301 40.7552 105.178 40.4 105.178 39.9367C105.178 39.5506 105.27 39.2263 105.471 38.9638C105.672 38.7012 105.934 38.5159 106.258 38.3923C106.582 38.2688 106.937 38.207 107.323 38.207C107.833 38.207 108.311 38.2842 108.774 38.4387L108.666 39.4425C108.219 39.2417 107.802 39.1336 107.416 39.1336C107.153 39.1336 106.922 39.1954 106.737 39.3035C106.536 39.4271 106.443 39.5969 106.443 39.8595C106.443 40.122 106.521 40.261 106.66 40.3537C106.798 40.4463 107.138 40.6007 107.647 40.8324C108.157 41.064 108.543 41.2957 108.774 41.5582C109.006 41.8208 109.145 42.176 109.145 42.6393C109.145 42.9636 109.083 43.257 108.959 43.4887C108.836 43.7357 108.666 43.9211 108.45 44.0755C108.234 44.2299 107.987 44.338 107.709 44.4153C107.431 44.4925 107.138 44.5234 106.829 44.5234C106.335 44.5234 105.826 44.4307 105.286 44.2454V44.2763Z" fill="white"/>
<path d="M114.561 44.3993H113.342V39.3339H111.613V38.3301H116.306V39.3339H114.561V44.3993Z" fill="white"/>
<path d="M122.727 43.4109V44.3993H119.1V38.3301H122.696V39.3339H120.334V40.801H122.495V41.7894H120.334V43.4109H122.727Z" fill="white"/>
<path d="M132.822 44.3993H131.603V40.8165C131.618 40.2759 131.649 39.72 131.68 39.1795H131.649C131.587 39.4266 131.526 39.6273 131.464 39.8126L129.92 44.3993H128.793L127.481 40.6157C127.312 40.1369 127.173 39.6736 127.065 39.1795H127.034C127.096 39.7663 127.126 40.2914 127.126 40.7701V44.3993H125.969V38.3301H127.898L128.994 41.5114C129.164 42.021 129.303 42.5152 129.38 43.0094C129.426 42.7623 129.488 42.5307 129.534 42.3453C129.581 42.16 129.642 41.9747 129.704 41.7739L130.862 38.3301H132.822V44.3993Z" fill="white"/>
<path d="M136.141 44.2763L136.249 43.1952C136.728 43.4578 137.191 43.5813 137.623 43.5813C137.901 43.5813 138.148 43.5195 138.364 43.3651C138.58 43.2261 138.688 43.0254 138.688 42.7474C138.688 42.4694 138.596 42.2841 138.426 42.1605C138.24 42.037 137.916 41.8825 137.453 41.6818C136.975 41.481 136.635 41.2494 136.388 41.0023C136.157 40.7552 136.033 40.4 136.033 39.9367C136.033 39.5506 136.126 39.2263 136.326 38.9638C136.527 38.7012 136.79 38.5159 137.114 38.3923C137.438 38.2688 137.793 38.207 138.179 38.207C138.688 38.207 139.167 38.2842 139.63 38.4387L139.522 39.4425C139.074 39.2417 138.657 39.1336 138.271 39.1336C138.009 39.1336 137.777 39.1954 137.592 39.3035C137.392 39.4271 137.299 39.5969 137.299 39.8595C137.299 40.122 137.376 40.261 137.515 40.3537C137.654 40.4463 137.994 40.6007 138.503 40.8324C139.012 41.064 139.398 41.2957 139.63 41.5582C139.877 41.8208 140 42.176 140 42.6393C140 42.9636 139.938 43.257 139.815 43.4887C139.691 43.7357 139.522 43.9211 139.306 44.0755C139.089 44.2299 138.842 44.338 138.565 44.4153C138.287 44.4925 137.994 44.5234 137.685 44.5234C137.191 44.5234 136.681 44.4307 136.141 44.2454V44.2763Z" fill="white"/>
<path d="M31.3958 22.6094C31.0408 21.6056 30.5314 20.7099 29.8831 19.9532C29.2194 19.1964 28.4322 18.5787 27.5215 18.0845C26.6108 17.5903 25.5921 17.266 24.4653 17.0962V16.9881C26.2249 16.4166 27.645 15.4592 28.7255 14.131C29.806 12.8029 30.3308 11.1196 30.3308 9.11194C30.3308 7.10431 29.9603 5.59086 29.2194 4.41716C28.4785 3.24347 27.5215 2.31687 26.333 1.66825C25.1444 1.00418 23.8015 0.571767 22.3197 0.35556C20.8225 0.139354 19.3407 0.03125 17.8743 0.03125H0L2.14554 6.70278H5.17089V35.798H19.1246C20.6373 35.798 22.1499 35.6282 23.6781 35.2884C25.2062 34.9487 26.5799 34.3927 27.7993 33.6205C29.0187 32.8484 30.0066 31.8291 30.7784 30.5628C31.5502 29.2964 31.9361 27.7212 31.9361 25.8371C31.9361 24.6943 31.7663 23.6132 31.4112 22.6094H31.3958ZM23.9559 26.9027C23.6472 27.4432 23.2613 27.8756 22.7828 28.2154C22.3043 28.5551 21.7641 28.7868 21.1775 28.9258C20.591 29.0647 20.0044 29.1265 19.4179 29.1265H12.6725V6.70278H17.7817C18.3528 6.70278 18.9548 6.76455 19.5568 6.87266C20.1588 6.9962 20.7144 7.18152 21.1929 7.4595C21.6714 7.72204 22.0728 8.10812 22.366 8.60231C22.6748 9.0965 22.8291 9.69879 22.8291 10.4401C22.8291 11.1814 22.6902 11.7528 22.4123 12.2624C22.1345 12.772 21.7795 13.1735 21.3319 13.467C20.8842 13.7758 20.3749 13.992 19.8192 14.131C19.2635 14.27 18.6924 14.3318 18.1058 14.3318H17.5656H14.5248L16.6703 21.0033H17.5193H18.3374C18.9394 21.0033 19.6031 21.0497 20.3131 21.1578C21.0232 21.2659 21.6714 21.4512 22.2889 21.7137C22.8909 21.9763 23.4002 22.3778 23.8015 22.9029C24.2029 23.4279 24.4035 24.1074 24.4035 24.9414C24.4035 25.7135 24.2492 26.3776 23.9405 26.9181L23.9559 26.9027Z" fill="white"/>
<path d="M50.0108 10.4244L59.4574 35.7824H67.8852L53.0671 0.015625H46.8466L32.1211 35.7824H40.3945H40.5489L50.0108 10.4244Z" fill="white"/>
<path d="M90.2509 35.7822H97.4593L88.8 20.6786C91.2079 20.1999 93.0293 19.088 94.295 17.312C95.5453 15.5515 96.1782 13.3894 96.1782 10.8721C96.1782 8.78727 95.8386 7.04217 95.144 5.63682C94.4494 4.24692 93.5233 3.135 92.3502 2.30106C91.1771 1.48256 89.8187 0.880271 88.2598 0.525074C86.7008 0.169877 85.0646 0 83.3204 0H70.123V35.7668H77.6401V6.67153H82.5486C83.2278 6.67153 83.9069 6.71786 84.617 6.82596C85.327 6.93406 85.9444 7.11938 86.5001 7.41281C87.0404 7.70623 87.488 8.10776 87.843 8.64828C88.198 9.18879 88.3678 9.91463 88.3678 10.8258C88.3678 11.7987 88.1671 12.5554 87.7658 13.096C87.3645 13.6365 86.8551 14.038 86.2531 14.2851C85.6357 14.5322 84.9566 14.6866 84.2002 14.733C83.4439 14.7793 82.7338 14.8102 82.0547 14.8102H79.6467L90.2509 35.7668V35.7822Z" fill="white"/>
<path d="M137.546 28.9259H116.569C114.964 28.9259 113.513 28.648 112.217 28.1074C110.92 27.5669 109.809 26.7948 108.867 25.8218C107.941 24.8489 107.216 23.6906 106.722 22.3471C106.228 21.0189 105.981 19.5518 105.981 17.9457C105.981 16.3396 106.228 14.9188 106.722 13.5598C107.216 12.2008 107.926 11.0425 108.867 10.0696C109.793 9.09668 110.92 8.32451 112.217 7.78399C113.513 7.24348 114.964 6.9655 116.569 6.9655C118.175 6.9655 119.626 7.24348 120.922 7.78399C122.219 8.32451 123.33 9.09668 124.272 10.0696C125.198 11.0425 125.923 12.2162 126.417 13.5598C126.911 14.9034 127.158 16.3705 127.158 17.9457C127.158 19.5209 126.911 21.0189 126.417 22.3471C125.923 23.6752 125.198 24.8335 124.272 25.8218C124.009 26.0998 123.716 26.3623 123.423 26.6094H133.024C133.224 26.2079 133.425 25.7909 133.595 25.3585C134.505 23.1501 134.969 20.6637 134.969 17.9457C134.969 15.2277 134.505 12.7413 133.595 10.5329C132.684 8.32451 131.403 6.42498 129.767 4.88064C128.131 3.32087 126.186 2.13173 123.948 1.29779C121.694 0.463846 119.24 0.046875 116.585 0.046875C113.93 0.046875 111.46 0.463846 109.222 1.29779C106.969 2.13173 105.039 3.33631 103.403 4.88064C101.767 6.44042 100.486 8.32451 99.5749 10.5329C98.6642 12.7413 98.2012 15.2277 98.2012 17.9457C98.2012 20.6637 98.6642 23.1501 99.5749 25.3585C100.486 27.5669 101.767 29.4665 103.403 31.0108C105.039 32.5706 106.984 33.7597 109.222 34.5937C111.476 35.4276 113.93 35.8446 116.585 35.8446H139.707L137.562 28.9105L137.546 28.9259Z" fill="white"/>
</svg>
