<svg width="40" height="40" viewBox="0 0 40 40" fill="none" xmlns="http://www.w3.org/2000/svg">
<g clip-path="url(#clip0_1632_3351)">
<path d="M39.201 18.4448L37.2018 15.1166L38.3972 14.4134C38.7955 14.1556 39.0302 13.7103 38.9597 13.2184C38.8895 12.7496 38.5379 12.3746 38.0927 12.2574C37.4833 12.0935 29.3741 10.0775 28.3194 9.79648C27.7102 9.65578 27.0773 10.0073 26.9131 10.6168L24.1712 20.343C24.054 20.8117 24.2181 21.3039 24.5929 21.585C24.9679 21.8898 25.4837 21.9134 25.9054 21.6788L27.0773 20.9756C27.2144 21.2133 34.7357 34.3264 34.2716 33.5223L39.3185 24.1162C40.2557 22.3352 40.2323 20.1791 39.201 18.4448ZM5.85938 34.3427C6.84359 36.3348 8.88242 37.5769 11.109 37.5769H15.3122V38.8269C15.3122 39.2956 15.5933 39.7174 16.0385 39.9048C16.3824 40.0769 16.9602 40.0296 17.3041 39.6472L24.335 32.5378C24.8037 32.0926 24.8037 31.3428 24.335 30.8975L17.3041 23.7881C16.976 23.4369 16.4838 23.3429 16.0385 23.5306C15.5932 23.718 15.3122 24.1397 15.3122 24.6084V25.7803H1.61719L5.85938 34.3427ZM6.77344 17.5073C6.95188 18.1623 7.64187 18.462 8.1793 18.3273L18.0307 15.8664C18.476 15.7492 18.8276 15.3742 18.898 14.9057C18.9682 14.4135 18.7338 13.9682 18.3352 13.7104L17.1402 13.0073L24.7336 0H14.5855C12.5848 0 10.4931 1.08305 9.44516 2.92969L6.93727 7.14813L5.7657 6.445C5.34359 6.21063 4.82789 6.23406 4.45312 6.53898C4.07812 6.82008 3.91391 7.31234 4.03141 7.78109L6.77344 17.5073Z" fill="white"/>
<path d="M28.0478 7.42261C28.3166 7.42261 28.5855 7.45339 28.8464 7.51417C29.1586 7.59597 31.3794 8.15378 33.6341 8.71987L30.4755 2.9298C29.7589 1.6755 28.588 0.781045 27.2482 0.332764L21.3031 10.5946L23.4002 14.4425L24.6582 9.98003C25.0598 8.4855 26.4572 7.42261 28.0478 7.42261ZM11.1051 23.437L13.3792 19.4346L8.75094 20.6001C8.47824 20.6688 8.19808 20.7033 7.91687 20.7029H7.91562C6.32602 20.7029 4.92648 19.6421 4.51234 18.1248L3.23578 13.5972L0.784297 18.0699C-0.189141 19.7227 -0.245078 21.6984 0.553594 23.4371L11.1051 23.437ZM27.1414 25.7804H22.6102L25.9924 29.2402C26.6366 29.8515 27.0303 30.7691 27.0303 31.7179C27.0303 32.6667 26.6366 33.5843 25.95 34.2366L22.6102 37.577H28.5998C30.2228 37.577 31.7514 36.898 32.8488 35.7432L27.1414 25.7804Z" fill="white"/>
</g>
<defs>
<clipPath id="clip0_1632_3351">
<rect width="40" height="40" fill="white"/>
</clipPath>
</defs>
</svg>
