<svg width="40" height="40" viewBox="0 0 40 40" fill="none" xmlns="http://www.w3.org/2000/svg">
<path fill-rule="evenodd" clip-rule="evenodd" d="M34.5867 18.482L34.6023 9.21406H28.5258L28.5211 22.2398C28.9039 22.1047 29.2875 21.9656 29.6664 21.8172C31.7078 21.0219 33.1625 20.0898 34.5867 18.482ZM30.2766 11.9398H32.843V14.5062H30.2766V11.9398ZM30.2766 17.3039H32.843V19.8703H30.2766V17.3039ZM10.3328 21.8172C10.7094 21.9656 11.0898 22.1031 11.4734 22.2383L11.4797 9.21406H5.42734L5.41406 18.482C6.83828 20.0898 8.29062 21.0219 10.3328 21.8172ZM7.16328 11.9398H9.72968V14.5062H7.16328V11.9398ZM7.16328 17.3039H9.72968V19.8703H7.16328V17.3039ZM17.1109 24.3547V20.8711H22.8891V24.3547C24.043 23.832 25.2141 23.3805 26.4125 22.9617C26.6828 22.8664 26.957 22.7734 27.2297 22.6805L27.2406 0.0390625H12.7727L12.7617 22.6789C13.0383 22.7719 13.3133 22.8672 13.5875 22.9625C14.7859 23.3805 15.9578 23.832 17.1109 24.3547ZM21.5336 3.21875H24.4945V6.17969H21.5336V3.21875ZM21.5336 8.975H24.4945V11.9359H21.5336V8.975ZM21.5336 14.7305H24.4945V17.6938H21.5336V14.7305ZM15.5031 3.21875H18.4664V6.17969H15.5031V3.21875ZM15.5031 8.975H18.4664V11.9359H15.5031V8.975ZM15.5031 14.7305H18.4664V17.6938H15.5031V14.7305ZM32.8945 33.2687C29.9976 37.1086 25.7836 39.3695 21.3547 39.8992C21.9727 37.4078 22.6633 34.8438 22.5461 32.2609C22.4555 30.3008 21.8906 28.6383 20.8539 27.2625C21.4094 26.7133 22.0937 26.2063 22.9336 25.7547C28.6453 23.0508 32.1266 23.4094 35.8289 19.018C36.9961 23.7945 36.0859 29.0367 32.8945 33.2687ZM20.2383 39.0484C19.4344 37.4961 18.5 36.0898 17.468 34.8492C16.2633 33.4055 14.9281 32.1898 13.5016 31.2438C13.4312 31.197 13.3524 31.1646 13.2695 31.1484C13.1866 31.1322 13.1014 31.1326 13.0186 31.1494C12.9359 31.1662 12.8572 31.1993 12.7873 31.2466C12.7173 31.2938 12.6574 31.3545 12.6109 31.425C12.4141 31.7195 12.4961 32.1203 12.7906 32.3156C14.1172 33.1969 15.3617 34.3266 16.4805 35.6703C17.5234 36.9195 18.4602 38.3586 19.2617 39.9602C14.6109 39.575 10.1375 37.2875 7.10625 33.268C3.9125 29.0359 3.00468 23.7938 4.17187 19.0172C7.875 23.4086 11.3562 23.05 17.0672 25.7539C22.7625 28.8219 21.3945 34.4289 20.2383 39.0484Z" fill="white"/>
</svg>
