<svg width="40" height="40" viewBox="0 0 40 40" fill="none" xmlns="http://www.w3.org/2000/svg">
<path d="M23.0795 20.0956C21.6947 20.4175 20.7344 21.2287 20.2684 21.9798C19.1891 23.7203 17.6652 24.522 16.0866 24.1797C15.2698 24.0024 14.5616 23.5257 14.0976 22.892C15.5682 22.0296 17.158 21.4893 18.9005 21.2549C19.4136 21.1859 19.7737 20.7139 19.7046 20.2008C19.6355 19.6877 19.163 19.328 18.6505 19.3966C16.8057 19.6449 15.1129 20.1916 13.5412 21.0502C13.6608 19.4442 15.1128 18.4281 16.4207 18.0286C18.5153 17.3888 21.2201 17.8438 23.0796 20.0956L23.0795 20.0956ZM32.3852 17.355L20.8539 37.3277C20.4359 38.0511 19.7609 38.5675 18.9531 38.7839C18.6828 38.8566 18.4086 38.8925 18.1359 38.8925C17.5937 38.8925 17.0594 38.7503 16.5789 38.4722L4.21797 31.3378C2.725 30.4745 2.21172 28.5574 3.07265 27.0636L14.604 7.09016C14.6758 6.96572 14.7753 6.85948 14.8948 6.77968C15.0143 6.69988 15.1506 6.64867 15.293 6.63001L23.6829 5.51751L22.5423 8.6722C22.0985 9.89719 22.1915 11.2652 22.7962 12.4253C22.9634 12.7464 23.2899 12.93 23.6282 12.93C23.7743 12.93 23.922 12.8956 24.0602 12.8238C24.5196 12.5847 24.6977 12.0183 24.4587 11.5597C24.0962 10.8628 24.0399 10.0433 24.3055 9.31048L25.7766 5.24016L26.9563 5.08391C27.1612 5.05669 27.3693 5.09793 27.5483 5.20121C27.7273 5.30449 27.8672 5.46402 27.9462 5.65501L32.4399 16.5284C32.5509 16.798 32.5305 17.1034 32.3852 17.355H32.3852ZM17.5125 32.0769L9.29218 27.3308C8.84375 27.0722 8.27031 27.2261 8.01172 27.6745C7.75234 28.1222 7.90625 28.6956 8.35468 28.955L16.575 33.7003C16.6816 33.7619 16.7993 33.8019 16.9213 33.818C17.0434 33.8341 17.1674 33.826 17.2863 33.7942C17.4052 33.7623 17.5167 33.7074 17.6144 33.6324C17.712 33.5575 17.7939 33.464 17.8555 33.3574C18.1141 32.9089 17.9609 32.3355 17.5125 32.0769ZM25.568 20.4581C24.5242 18.5245 22.9672 17.1245 21.0656 16.4105C19.3977 15.7839 17.5531 15.7222 15.8727 16.2355C14.5937 16.6261 13.5203 17.3144 12.768 18.2261C11.9312 19.2409 11.5555 20.4581 11.6812 21.7456C11.6828 21.755 11.6836 21.7644 11.6844 21.7738C11.7031 21.9159 11.7281 22.0566 11.7594 22.1956C11.2555 22.5706 10.7648 22.9816 10.2859 23.4308C9.90859 23.7847 9.88906 24.3777 10.243 24.7558C10.4273 24.9527 10.6773 25.0519 10.9273 25.0519C11.157 25.0519 11.3875 24.9683 11.568 24.7988C11.8883 24.4988 12.2133 24.2191 12.5453 23.9566C13.2695 24.9753 14.3812 25.7284 15.6891 26.012C16.0553 26.0921 16.429 26.1327 16.8039 26.1331C18.7641 26.1331 20.5992 25.0042 21.8617 22.9683C22.1555 22.4949 23.0789 21.7238 24.6766 21.8386C25.0172 21.8636 25.3453 21.6995 25.5305 21.4128C25.7164 21.1253 25.7312 20.7597 25.568 20.4581ZM29.5268 32.9764C30.0319 32.9764 30.4428 32.5655 30.4428 32.0603V25.1223C30.4428 24.9594 30.3996 24.8066 30.3247 24.6739L25.5313 32.9764H29.5268ZM36.9787 12.4406L30.8237 7.70899L34.1723 15.8124C34.5036 16.6145 34.4424 17.5415 34.0088 18.2927L31.3062 22.9738C31.9237 23.4862 32.3177 24.2591 32.3177 25.1223V32.0603C32.3177 33.5993 31.0657 34.8514 29.5267 34.8514H24.4487L22.4777 38.2655C22.2412 38.6746 21.9482 39.0484 21.6073 39.3756H34.2148C35.9407 39.3756 37.3447 37.9716 37.3447 36.2458V13.1839C37.3447 12.8927 37.2094 12.6181 36.9785 12.4406H36.9787ZM26.0969 4.35501C26.625 2.89719 28.2398 2.14016 29.6969 2.66751C31.0211 3.14641 31.7664 4.52141 31.4977 5.86204L33.0844 7.08157L33.1477 6.90579C34.0273 4.4761 32.7656 1.78391 30.3352 0.904226C27.9062 0.0253199 25.2141 1.28704 24.3336 3.71673L23.6829 5.51751L25.7766 5.24016L26.0969 4.35501Z" fill="white"/>
</svg>
