<svg width="1402" height="2642" viewBox="0 0 1402 2642" fill="none" xmlns="http://www.w3.org/2000/svg">
<path d="M886.997 890.831L320.189 0L302.526 27.7614L869.333 918.593L886.997 890.831Z" fill="#25B8E4"/>
<path d="M851.67 946.353L284.863 55.522L267.2 83.2833L834.007 974.115L851.67 946.353Z" fill="#25B8E4"/>
<path d="M816.342 1001.87L249.535 111.042L231.871 138.803L798.679 1029.63L816.342 1001.87Z" fill="#25B8E4"/>
<path d="M780.997 1057.4L214.189 166.567L196.526 194.328L763.333 1085.16L780.997 1057.4Z" fill="#25B8E4"/>
<path d="M745.67 1112.95L178.863 222.114L161.2 249.875L728.007 1140.71L745.67 1112.95Z" fill="#25B8E4"/>
<path d="M1207.02 438.852L0 2335.88L17.6637 2363.64L1224.68 466.613L1207.02 438.852Z" fill="#25B8E4"/>
<path d="M1242.34 494.399L35.3262 2391.43L52.9898 2419.19L1260.01 522.16L1242.34 494.399Z" fill="#25B8E4"/>
<path d="M1277.67 549.921L70.6543 2446.95L88.318 2474.71L1295.33 577.683L1277.67 549.921Z" fill="#25B8E4"/>
<path d="M1313.02 605.444L106.002 2502.47L123.666 2530.23L1330.68 633.205L1313.02 605.444Z" fill="#25B8E4"/>
<path d="M1348.34 660.964L141.326 2557.99L158.99 2585.75L1366.01 688.725L1348.34 660.964Z" fill="#25B8E4"/>
<path d="M1383.67 716.489L176.653 2613.52L194.317 2641.28L1401.33 744.251L1383.67 716.489Z" fill="#25B8E4"/>
</svg>
