<svg width="49" height="64" viewBox="0 0 49 64" fill="none" xmlns="http://www.w3.org/2000/svg">
<path d="M45.6828 42.3989C42.3551 42.5653 37.4053 41.567 35.9911 38.1146C28.4207 43.522 20.9335 43.3972 13.4464 37.8234C11.2834 41.567 7.7894 42.6485 3.54667 42.4405V41.3174C3.54667 34.4542 3.46348 27.6325 3.58827 20.7693C3.62986 16.3602 5.0441 12.3254 8.37173 9.24739C9.49481 8.20751 10.9506 7.58358 12.2817 6.71008C12.5313 6.54369 12.864 6.37731 12.9888 6.08614C14.4862 2.84171 17.2315 1.17789 20.5592 0.512366C31.5819 -1.65059 42.272 5.04626 45.1004 15.9442C45.5164 17.4833 45.7244 19.1471 45.7244 20.7277C45.8076 27.7157 45.766 34.7038 45.766 41.6918C45.7244 41.8997 45.6828 42.1077 45.6828 42.3989ZM17.8139 15.2787C15.6509 18.6063 15.5261 18.7311 12.1985 21.1021C11.9073 21.31 11.6994 21.6844 11.6578 22.0172C11.1586 24.4297 11.2834 26.8006 12.0321 29.13C14.0703 35.4525 20.4344 39.2792 27.2144 38.2394C33.4953 37.2827 38.4452 31.5009 38.5284 25.0536C38.5284 24.3049 38.3204 24.1385 37.6133 24.0969C34.0777 23.889 30.7084 23.0155 27.4224 21.6428C23.8036 20.187 20.6008 18.1072 17.8139 15.2787ZM25.0099 58.3299C27.7136 54.5031 30.3341 50.8012 32.9962 47.0992C33.4953 46.4336 34.2856 45.9345 35.0344 45.5601C35.5751 45.3106 36.3654 45.3522 36.9477 45.5185C40.2338 46.6 43.5614 47.7231 46.8058 48.9294C48.1369 49.4285 48.9272 50.51 48.9688 51.9658C49.0104 54.6279 49.0104 57.29 48.9688 59.9521C48.9272 61.7407 47.5546 63.1134 45.7244 63.3214C45.4332 63.363 45.142 63.363 44.8093 63.363H5.0857C2.25721 63.363 0.926163 62.0319 0.926163 59.1618V52.3402C0.926163 50.5516 1.79967 49.4285 3.46348 48.8462C6.45835 47.8063 9.45321 46.7248 12.4481 45.7265C14.4447 45.061 15.7341 45.5185 16.9404 47.1824C19.3945 50.6348 21.8486 54.0872 24.3028 57.5812C24.5939 57.7476 24.7603 57.9972 25.0099 58.3299Z" fill="white"/>
</svg>
