<svg width="64" height="65" viewBox="0 0 64 65" fill="none" xmlns="http://www.w3.org/2000/svg">
<path d="M54.6274 10.087C48.5834 4.04298 40.5474 0.714355 31.9999 0.714355C23.4524 0.714355 15.4167 4.04298 9.37256 10.087C3.32868 16.131 0.000183105 24.1669 0.000183105 32.7144C0.000183105 41.2619 3.32868 49.2977 9.37268 55.3417C15.4167 61.3857 23.4526 64.7144 31.9999 64.7144C40.5473 64.7144 48.5833 61.3857 54.6274 55.3417C60.6714 49.2977 63.9999 41.2619 63.9999 32.7144C63.9999 24.1669 60.6714 16.131 54.6274 10.087ZM12.0502 26.6895C12.0502 22.3332 15.5941 18.7894 19.9501 18.7894C24.3061 18.7894 27.8499 22.3334 27.8499 26.6895C27.8499 27.725 27.0104 28.5645 25.9749 28.5645C24.9394 28.5645 24.0999 27.725 24.0999 26.6895C24.0999 24.401 22.2383 22.5394 19.9501 22.5394C17.6618 22.5394 15.8002 24.4011 15.8002 26.6895C15.8002 27.725 14.9607 28.5645 13.9252 28.5645C12.8897 28.5645 12.0502 27.725 12.0502 26.6895ZM50.8126 39.3641C48.0007 47.3194 40.4407 52.6644 31.9999 52.6644C23.5592 52.6644 15.9989 47.3194 13.1873 39.3641C12.8422 38.3877 13.3539 37.3166 14.3303 36.9715C15.3067 36.6266 16.3779 37.1382 16.7231 38.1146C19.0062 44.5744 25.1456 48.9144 32.0001 48.9144C38.8546 48.9144 44.9938 44.5742 47.2771 38.1145C47.6222 37.1381 48.6934 36.6271 49.6698 36.9715C50.6461 37.3165 51.1577 38.3877 50.8126 39.3641ZM50.0748 28.5645C49.0393 28.5645 48.1998 27.725 48.1998 26.6895C48.1998 24.401 46.3382 22.5394 44.0499 22.5394C41.7617 22.5394 39.9001 24.4011 39.9001 26.6895C39.9001 27.725 39.0606 28.5645 38.0251 28.5645C36.9896 28.5645 36.1501 27.725 36.1501 26.6895C36.1501 22.3332 39.6939 18.7894 44.0499 18.7894C48.4061 18.7894 51.9498 22.3334 51.9498 26.6895C51.9498 27.725 51.1103 28.5645 50.0748 28.5645Z" fill="white"/>
</svg>
