<svg width="64" height="47" viewBox="0 0 64 47" fill="none" xmlns="http://www.w3.org/2000/svg">
<path d="M59.3133 33.7143C59.7836 33.3685 60.1543 32.9047 60.3881 32.3699C60.6219 31.835 60.7105 31.2479 60.6449 30.6679C60.5793 30.0878 60.3619 29.5353 60.0145 29.0662C59.6672 28.597 59.2023 28.2277 58.6667 27.9957V23.4343L56 24.5677V27.9957C55.4641 28.2276 54.9989 28.5969 54.6513 29.0662C54.3038 29.5355 54.0863 30.0882 54.0206 30.6684C53.955 31.2487 54.0437 31.836 54.2777 32.371C54.5117 32.9061 54.8827 33.3699 55.3533 33.7157C54.9347 34.0232 54.5942 34.4247 54.3591 34.8878C54.1241 35.351 54.0011 35.8629 54 36.3823V39.7143C54 40.0679 54.1405 40.4071 54.3905 40.6571C54.6406 40.9072 54.9797 41.0477 55.3333 41.0477H59.3333C59.687 41.0477 60.0261 40.9072 60.2762 40.6571C60.5262 40.4071 60.6667 40.0679 60.6667 39.7143V36.381C60.6656 35.8616 60.5426 35.3497 60.3075 34.8865C60.0725 34.4233 59.7319 34.0218 59.3133 33.7143ZM52 26.261V36.1277C52.0072 37.2747 51.716 38.4039 51.155 39.4043C50.5939 40.4048 49.7824 41.2422 48.8 41.8343C43.7019 44.8118 37.904 46.3809 32 46.3809C26.0961 46.3809 20.2982 44.8118 15.2 41.8343C14.2176 41.2422 13.4061 40.4048 12.845 39.4043C12.284 38.4039 11.9928 37.2747 12 36.1277V26.261L28.36 33.181C29.5125 33.665 30.75 33.9144 32 33.9144C33.25 33.9144 34.4875 33.665 35.64 33.181L52 26.261Z" fill="white"/>
<path d="M61.3813 12.0303L34.5973 0.696961C33.7742 0.350718 32.8903 0.172363 31.9973 0.172363C31.1044 0.172363 30.2204 0.350718 29.3973 0.696961L2.61332 12.0303C1.88937 12.3365 1.27169 12.8492 0.837428 13.5044C0.403165 14.1596 0.17157 14.9283 0.17157 15.7143C0.17157 16.5003 0.403165 17.269 0.837428 17.9242C1.27169 18.5794 1.88937 19.0921 2.61332 19.3983L29.3973 30.7316C30.2203 31.0782 31.1043 31.2568 31.9973 31.2568C32.8903 31.2568 33.7743 31.0782 34.5973 30.7316L61.3813 19.3983C62.1053 19.0921 62.723 18.5794 63.1572 17.9242C63.5915 17.269 63.8231 16.5003 63.8231 15.7143C63.8231 14.9283 63.5915 14.1596 63.1572 13.5044C62.723 12.8492 62.1053 12.3365 61.3813 12.0303Z" fill="white"/>
</svg>
