<svg width="514" height="514" viewBox="0 0 514 514" fill="none" xmlns="http://www.w3.org/2000/svg">
<g style="mix-blend-mode:hard-light">
<path d="M359.919 257.297C359.919 200.621 313.974 154.676 257.297 154.676C200.621 154.676 154.676 200.621 154.676 257.297C154.676 313.974 200.621 359.919 257.297 359.919V369.437C195.364 369.437 145.157 319.231 145.157 257.297C145.157 195.364 195.364 145.157 257.297 145.157C319.231 145.157 369.437 195.364 369.437 257.297C369.437 319.231 319.231 369.437 257.297 369.437V359.919C313.974 359.919 359.919 313.974 359.919 257.297Z" fill="url(#paint0_linear_63_1633)"/>
<path d="M386.905 257.298C386.905 185.718 328.878 127.69 257.298 127.69C185.718 127.69 127.69 185.718 127.69 257.298C127.69 328.878 185.718 386.905 257.298 386.905V396.804C180.251 396.804 117.792 334.345 117.792 257.298C117.792 180.251 180.251 117.792 257.298 117.792C334.345 117.792 396.804 180.251 396.804 257.298C396.804 334.345 334.345 396.804 257.298 396.804V386.905C328.878 386.905 386.905 328.878 386.905 257.298Z" fill="url(#paint1_linear_63_1633)"/>
<path d="M412.024 257.298C412.024 171.845 342.75 102.571 257.298 102.571C171.845 102.571 102.571 171.845 102.571 257.298C102.571 342.75 171.845 412.024 257.298 412.024V421.789C166.451 421.789 92.8057 348.144 92.8057 257.298C92.8057 166.451 166.451 92.8057 257.298 92.8057C348.144 92.8057 421.789 166.451 421.789 257.298C421.789 348.144 348.144 421.789 257.298 421.789V412.024C342.75 412.024 412.024 342.75 412.024 257.298Z" fill="url(#paint2_linear_63_1633)"/>
<path d="M438.799 257.298C438.799 157.057 357.538 75.7966 257.298 75.7966C157.057 75.7966 75.7966 157.057 75.7966 257.298C75.7966 357.538 157.057 438.799 257.298 438.799V448.561C151.666 448.561 66.0352 362.929 66.0352 257.298C66.0352 151.666 151.666 66.0352 257.298 66.0352C362.929 66.0352 448.561 151.666 448.561 257.298C448.561 362.929 362.929 448.561 257.298 448.561V438.799C357.538 438.799 438.799 357.538 438.799 257.298Z" fill="url(#paint3_linear_63_1633)"/>
<path d="M471.99 257C471.99 138.264 375.736 42.0096 257 42.0096C138.264 42.0096 42.0096 138.264 42.0096 257C42.0096 375.736 138.264 471.99 257 471.99V481.875C132.805 481.875 32.125 381.195 32.125 257C32.125 132.805 132.805 32.125 257 32.125C381.195 32.125 481.875 132.805 481.875 257C481.875 381.195 381.195 481.875 257 481.875V471.99C375.736 471.99 471.99 375.736 471.99 257Z" fill="url(#paint4_linear_63_1633)"/>
<path d="M504.186 257C504.186 120.483 393.517 9.81384 257 9.81384C120.483 9.81384 9.81384 120.483 9.81384 257C9.81384 393.517 120.483 504.186 257 504.186V514C115.063 514 0 398.937 0 257C0 115.063 115.063 0 257 0C398.937 0 514 115.063 514 257C514 398.937 398.937 514 257 514V504.186C393.517 504.186 504.186 393.517 504.186 257Z" fill="url(#paint5_linear_63_1633)"/>
</g>
<defs>
<linearGradient id="paint0_linear_63_1633" x1="282.823" y1="327.33" x2="234.607" y2="218.026" gradientUnits="userSpaceOnUse">
<stop stop-color="#B6E6F7"/>
<stop offset="1" stop-color="#134A83"/>
</linearGradient>
<linearGradient id="paint1_linear_63_1633" x1="289.053" y1="344.421" x2="229.071" y2="208.444" gradientUnits="userSpaceOnUse">
<stop stop-color="#B6E6F7"/>
<stop offset="1" stop-color="#134A83"/>
</linearGradient>
<linearGradient id="paint2_linear_63_1633" x1="294.74" y1="360.025" x2="224.015" y2="199.693" gradientUnits="userSpaceOnUse">
<stop stop-color="#B6E6F7"/>
<stop offset="1" stop-color="#134A83"/>
</linearGradient>
<linearGradient id="paint3_linear_63_1633" x1="300.834" y1="376.744" x2="218.599" y2="190.319" gradientUnits="userSpaceOnUse">
<stop stop-color="#B6E6F7"/>
<stop offset="1" stop-color="#134A83"/>
</linearGradient>
<linearGradient id="paint4_linear_63_1633" x1="308.187" y1="397.437" x2="211.5" y2="178.25" gradientUnits="userSpaceOnUse">
<stop stop-color="#B6E6F7"/>
<stop offset="1" stop-color="#134A83"/>
</linearGradient>
<linearGradient id="paint5_linear_63_1633" x1="315.5" y1="417.5" x2="205" y2="167" gradientUnits="userSpaceOnUse">
<stop stop-color="#B6E6F7"/>
<stop offset="1" stop-color="#134A83"/>
</linearGradient>
</defs>
</svg>
