<svg width="97" height="97" viewBox="0 0 97 97" fill="none" xmlns="http://www.w3.org/2000/svg">
<path d="M48.468 0.915527H96.046V48.4935C96.046 61.112 91.0334 73.2136 82.1107 82.1362C73.1881 91.0588 61.0865 96.0715 48.468 96.0715H0.890015V48.4935C0.890015 35.8751 5.90268 23.7734 14.8253 14.8508C23.7479 5.92822 35.8495 0.915527 48.468 0.915527Z" fill="#CC8B18"/>
<path d="M25.118 54.139V57.6215H23.8409V50.018H25.6985C26.975 50.018 27.4395 50.6565 27.4395 51.701V52.6879C27.4395 53.5004 27.1495 53.965 26.395 54.138L27.6135 57.6204H26.2784L25.118 54.138V54.139ZM25.118 51.0625V53.4425H25.524C25.611 53.4566 25.7002 53.4499 25.7841 53.4228C25.868 53.3957 25.9443 53.3491 26.0067 53.2867C26.069 53.2243 26.1157 53.1481 26.1428 53.0642C26.1698 52.9802 26.1766 52.8911 26.1624 52.804V51.701C26.1766 51.614 26.1698 51.5248 26.1428 51.4409C26.1157 51.357 26.069 51.2807 26.0067 51.2183C25.9443 51.156 25.868 51.1093 25.7841 51.0822C25.7002 51.0551 25.611 51.0483 25.524 51.0625H25.118ZM28.3105 50.018H31.3864V51.0625H29.5865V53.2685H30.8629V54.3129H29.5865V56.635H31.3864V57.6795H28.3105V50.018ZM32.0829 55.9965V54.9515H33.302V55.9965C33.302 56.4025 33.476 56.693 33.9405 56.693C34.347 56.693 34.521 56.4025 34.521 55.9965V55.706C34.5159 55.4899 34.4608 55.2779 34.3601 55.0866C34.2594 54.8953 34.1158 54.73 33.9405 54.6035L33.1859 53.8485C32.4314 53.152 32.141 52.688 32.141 51.817V51.585C32.13 51.3509 32.1699 51.1171 32.2582 50.9C32.3464 50.6828 32.4808 50.4875 32.6519 50.3273C32.8231 50.1672 33.0271 50.0463 33.2496 49.9727C33.4722 49.8992 33.7081 49.8748 33.9409 49.9014C35.2179 49.9014 35.741 50.54 35.741 51.643V52.2815H34.58V51.6435C34.58 51.179 34.406 51.005 33.9995 51.005C33.6495 51.005 33.4189 51.179 33.4189 51.6435V51.8175C33.4382 52.0223 33.4998 52.221 33.5997 52.4008C33.6996 52.5807 33.8357 52.7379 33.9995 52.8625L34.812 53.675C35.5085 54.3715 35.857 54.836 35.857 55.6485V55.9985C35.857 57.043 35.2765 57.7985 33.9995 57.7985C32.6065 57.74 32.084 56.9855 32.084 55.9985L32.0829 55.9965ZM36.5525 50.018H38.468C39.745 50.018 40.2094 50.6565 40.2094 51.701V53.3265C40.2094 54.371 39.745 55.0675 38.468 55.0675H37.8295V57.6795H36.5525V50.018ZM37.8295 51.0625V54.081H38.2939C38.381 54.0951 38.4702 54.0883 38.5541 54.0612C38.638 54.0341 38.7143 53.9875 38.7766 53.9251C38.839 53.8628 38.8857 53.7865 38.9128 53.7026C38.9398 53.6187 38.9466 53.5295 38.9325 53.4425V51.701C38.9466 51.614 38.9398 51.5248 38.9128 51.4409C38.8857 51.357 38.839 51.2807 38.7766 51.2183C38.7143 51.156 38.638 51.1093 38.5541 51.0822C38.4702 51.0551 38.381 51.0483 38.2939 51.0625H37.8295ZM41.0219 55.648V51.9334C41.0219 50.7144 41.6025 49.9014 42.9375 49.9014C44.2725 49.9014 44.9109 50.7724 44.9109 51.9334V55.648C44.9109 56.809 44.3305 57.6795 42.9375 57.6795C41.6005 57.7375 41.0179 56.809 41.0179 55.648H41.0219ZM43.6339 55.8805V51.759C43.6339 51.295 43.46 50.9465 42.9955 50.9465C42.531 50.9465 42.357 51.2965 42.357 51.759V55.8805C42.357 56.3444 42.531 56.693 42.9955 56.693C43.1876 56.6696 43.3626 56.5709 43.4819 56.4185C43.6013 56.2662 43.6552 56.0726 43.632 55.8805H43.6339ZM46.8264 52.804V57.6215H45.7234V50.018H47.0005L48.3935 54.3709V50.018H49.4384V57.6215H48.3354L46.8264 52.804ZM50.309 55.9965V54.9515H51.528V55.9965C51.528 56.4025 51.7019 56.693 52.1664 56.693C52.5729 56.693 52.7469 56.4025 52.7469 55.9965V55.706C52.7417 55.4899 52.6865 55.278 52.5858 55.0867C52.4851 54.8955 52.3416 54.7301 52.1664 54.6035L51.412 53.8485C50.6575 53.152 50.3669 52.688 50.3669 51.817V51.585C50.3559 51.3509 50.396 51.1171 50.4842 50.9C50.5724 50.6828 50.7068 50.4875 50.878 50.3273C51.0491 50.1672 51.2531 50.0463 51.4756 49.9727C51.6982 49.8992 51.9341 49.8748 52.167 49.9014C53.444 49.9014 53.9669 50.54 53.9669 51.643V52.2815H52.8029V51.6435C52.8029 51.179 52.6289 51.005 52.2224 51.005C51.8724 51.005 51.642 51.179 51.642 51.6435V51.8175C51.6611 52.0223 51.7226 52.2211 51.8225 52.401C51.9225 52.5808 52.0586 52.738 52.2224 52.8625L53.0349 53.675C53.7314 54.3715 54.08 54.836 54.08 55.6485V55.9985C54.08 57.043 53.4994 57.7985 52.2224 57.7985C50.7724 57.74 50.3069 56.9855 50.3069 55.9985L50.309 55.9965ZM54.7205 50.018H55.9975V57.6215H54.718L54.7205 50.018ZM56.8705 50.018H58.728C60.005 50.018 60.4115 50.5985 60.4115 51.701V52.4555C60.4478 52.7148 60.3922 52.9786 60.2544 53.2013C60.1166 53.4239 59.9052 53.5914 59.657 53.6745C59.944 53.7315 60.199 53.8946 60.3711 54.1313C60.5432 54.368 60.6197 54.6609 60.5854 54.9515V55.9384C60.5854 57.0409 60.121 57.6215 58.844 57.6215H56.868V50.018H56.8705ZM58.2054 53.2105H58.67C59.0765 53.2105 59.2505 52.978 59.2505 52.572V51.6435C59.2646 51.5565 59.2578 51.4673 59.2307 51.3834C59.2037 51.2995 59.157 51.2232 59.0947 51.1608C59.0323 51.0985 58.956 51.0518 58.8721 51.0247C58.7882 50.9976 58.699 50.9908 58.612 51.005H58.1475L58.2054 53.2105ZM58.2054 54.197V56.577H58.7859C58.872 56.586 58.959 56.5757 59.0406 56.5468C59.1222 56.5179 59.1963 56.4712 59.2575 56.41C59.3187 56.3488 59.3654 56.2746 59.3943 56.1931C59.4232 56.1115 59.4335 56.0245 59.4245 55.9384V54.7775C59.4386 54.6905 59.4318 54.6013 59.4048 54.5174C59.3777 54.4335 59.331 54.3571 59.2686 54.2948C59.2063 54.2324 59.13 54.1857 59.0461 54.1586C58.9622 54.1316 58.873 54.1249 58.7859 54.139H58.2054V54.197ZM61.3979 50.018H62.675V56.577H64.184V57.6215H61.3979V50.018ZM64.939 50.018H68.015V51.0625H66.215V53.2685H67.4919V54.3129H66.215V56.635H68.015V57.6795H64.939V50.018Z" fill="white"/>
<path d="M23.839 66.8506V63.136C23.839 61.917 24.4195 61.1045 25.7545 61.1045C27.1475 61.1045 27.5545 61.917 27.5545 63.02V63.9485H26.393V62.9615C26.393 62.4975 26.2185 62.207 25.7545 62.207C25.2905 62.207 25.116 62.557 25.116 63.02V67.141C25.116 67.6055 25.29 67.9535 25.7545 67.9535C26.219 67.9535 26.393 67.6635 26.393 67.199V65.806H27.5535V67.141C27.5535 68.244 27.0895 69.0565 25.7535 69.0565C24.418 68.9405 23.839 68.0696 23.839 66.8506ZM28.3665 66.8506V63.136C28.3665 61.917 28.9465 61.1045 30.282 61.1045C31.6175 61.1045 32.2555 61.975 32.2555 63.136V66.8506C32.2555 68.0116 31.675 68.8825 30.282 68.8825C28.9465 68.9405 28.368 68.0696 28.368 66.8506H28.3665ZM30.9785 67.083V62.9615C30.9785 62.4975 30.804 62.149 30.34 62.149C29.876 62.149 29.7015 62.499 29.7015 62.9615V67.083C29.7015 67.547 29.8755 67.8955 30.34 67.8955C30.804 67.8375 30.9785 67.547 30.9785 67.083ZM34.1705 64.0646V68.8821H33.068V61.2785H34.345L35.738 65.6314V61.2785H36.7825V68.8821H35.68L34.1705 64.0646ZM37.5955 67.199V66.154H38.8145V67.199C38.8145 67.6055 38.9885 67.8955 39.453 67.8955C39.859 67.8955 40.033 67.6055 40.033 67.199V66.9085C40.0277 66.6925 39.9726 66.4806 39.872 66.2894C39.7714 66.0982 39.628 65.9327 39.453 65.806L38.698 65.0515C37.9435 64.355 37.6535 63.8905 37.6535 63.02V62.7875C37.6424 62.5533 37.6823 62.3196 37.7705 62.1024C37.8587 61.8852 37.9931 61.6899 38.1643 61.5298C38.3355 61.3697 38.5395 61.2487 38.7621 61.1753C38.9847 61.1018 39.2206 61.0777 39.4535 61.1045C40.7305 61.1045 41.2535 61.7431 41.2535 62.8456V63.484H40.0925V62.8435C40.0925 62.3795 39.9185 62.2051 39.512 62.2051C39.162 62.2051 38.932 62.3795 38.932 62.8435V63.018C38.9511 63.2228 39.0126 63.4213 39.1124 63.6011C39.2123 63.7808 39.3483 63.938 39.512 64.0625L40.325 64.875C41.0215 65.5715 41.3695 66.036 41.3695 66.8485V67.1985C41.3695 68.2435 40.7895 68.9985 39.5125 68.9985C38.119 68.9405 37.597 68.1855 37.597 67.1985L37.5955 67.199ZM45.7795 61.2206V66.967C45.7795 68.1275 45.257 68.9405 43.9795 68.9405C42.644 68.9405 42.064 68.1855 42.064 66.967V61.2206H43.3405V67.141C43.3405 67.6055 43.515 67.8955 43.979 67.8955C44.443 67.8955 44.6175 67.6055 44.6175 67.141V61.2206H45.7795ZM50.191 63.8905L49.2625 68.824H48.682L47.753 63.8905V68.824H46.7085V61.2206H48.218L49.0305 65.5155L49.7855 61.2206H51.4105V68.824H50.2495V63.8905H50.191ZM52.2225 61.2206H54.138C55.415 61.2206 55.8795 61.859 55.8795 62.9035V64.529C55.8795 65.5735 55.415 66.27 54.138 66.27H53.4995V68.8821H52.2225V61.2206ZM53.4995 62.265V65.2835H53.964C54.051 65.2977 54.1402 65.2909 54.2241 65.2638C54.308 65.2367 54.3843 65.19 54.4467 65.1277C54.509 65.0653 54.5557 64.9891 54.5828 64.9051C54.6099 64.8212 54.6166 64.732 54.6025 64.645V62.9035C54.6166 62.8165 54.6099 62.7273 54.5828 62.6434C54.5557 62.5595 54.509 62.4831 54.4467 62.4208C54.3843 62.3584 54.308 62.3119 54.2241 62.2848C54.1402 62.2577 54.051 62.2509 53.964 62.265H53.4995ZM56.2855 61.2206H59.7105V62.265H58.668V68.824H57.391V62.265H56.3465L56.2855 61.2206ZM60.2905 61.2206H61.568V68.824H60.291L60.2905 61.2206ZM62.3225 66.8506V63.136C62.3225 61.917 62.9025 61.1045 64.238 61.1045C65.5735 61.1045 66.2115 61.975 66.2115 63.136V66.8506C66.2115 68.0116 65.631 68.8825 64.238 68.8825C62.9025 68.9405 62.3225 68.0696 62.3225 66.8506ZM64.9345 67.083V62.9615C64.9345 62.4975 64.76 62.149 64.296 62.149C63.832 62.149 63.6575 62.499 63.6575 62.9615V67.083C63.6575 67.547 63.8315 67.8955 64.296 67.8955C64.3913 67.8841 64.4834 67.8541 64.5671 67.8071C64.6508 67.7601 64.7244 67.6971 64.7838 67.6217C64.8431 67.5462 64.8869 67.4598 64.9128 67.3674C64.9386 67.275 64.946 67.1783 64.9345 67.083ZM68.0685 64.0646V68.8821H66.968V61.2785H68.245L69.638 65.6314V61.2785H70.6825V68.8821H69.578L68.0685 64.0646Z" fill="white"/>
<path d="M23.6644 80.027L25.1144 72.423H26.5644L28.0144 80.027H26.6794L26.4474 78.6335H25.1179L24.8854 80.027H23.6644ZM25.2319 77.647H26.2764L25.7544 74.5706L25.2319 77.647ZM29.6434 75.2671V80.0851H28.5404V72.4811H29.8179L31.2109 76.8345V72.4811H32.2559V80.0851H31.1529L29.6434 75.2671ZM36.8989 74.4546V77.9935C36.8989 79.1545 36.4344 80.0255 35.0414 80.0255H33.0679V72.4215H35.0414C36.3764 72.423 36.8989 73.2936 36.8989 74.4546ZM34.8674 78.9821C34.9696 78.9951 35.0734 78.9846 35.1709 78.9513C35.2684 78.918 35.357 78.8628 35.4298 78.7899C35.5027 78.7171 35.5578 78.6285 35.5911 78.531C35.6244 78.4335 35.635 78.3297 35.6219 78.2275V74.2225C35.6219 73.758 35.4479 73.468 34.8674 73.468H34.3449V78.9821H34.8674ZM38.8724 72.423H40.7879C42.0649 72.423 42.5289 73.0616 42.5289 74.1066V75.7316C42.5289 76.7766 42.0649 77.473 40.7879 77.473H40.1494V80.0851H38.8724V72.423ZM40.1494 73.468V76.4861H40.6134C40.7005 76.5002 40.7896 76.4934 40.8736 76.4663C40.9575 76.4392 41.0338 76.3926 41.0961 76.3302C41.1585 76.2678 41.2051 76.1916 41.2322 76.1077C41.2593 76.0237 41.2661 75.9346 41.2519 75.8475V74.1066C41.2661 74.0195 41.2593 73.9304 41.2322 73.8464C41.2051 73.7625 41.1585 73.6861 41.0961 73.6238C41.0338 73.5614 40.9575 73.5149 40.8736 73.4878C40.7896 73.4607 40.7005 73.4539 40.6134 73.468H40.1494ZM44.5024 76.5441V80.027H43.2254V72.423H45.0829C46.3599 72.423 46.8244 73.0616 46.8244 74.1061V75.093C46.8244 75.9055 46.5339 76.3701 45.7794 76.5431L46.9984 80.026H45.6634L44.5024 76.5431V76.5441ZM44.5024 73.468V75.8475H44.9089C44.996 75.8617 45.0851 75.855 45.1691 75.8279C45.253 75.8008 45.3293 75.7541 45.3916 75.6918C45.454 75.6294 45.5006 75.553 45.5277 75.4691C45.5548 75.3852 45.5616 75.296 45.5474 75.209V74.109C45.5616 74.022 45.5548 73.9328 45.5277 73.8489C45.5006 73.765 45.454 73.6887 45.3916 73.6263C45.3293 73.564 45.253 73.5173 45.1691 73.4902C45.0851 73.4631 44.996 73.4564 44.9089 73.4706L44.5024 73.468ZM47.5789 78.0536V74.3385C47.5789 73.1195 48.1594 72.307 49.4944 72.307C50.8294 72.307 51.4679 73.1775 51.4679 74.3385V78.0536C51.4679 79.2141 50.8874 80.0851 49.4944 80.0851C48.1594 80.1436 47.5789 79.2721 47.5789 78.0536ZM50.1909 78.2855V74.1646C50.1909 73.7001 50.0169 73.3516 49.5524 73.3516C49.0879 73.3516 48.9139 73.7016 48.9139 74.1646V78.2855C48.9139 78.75 49.0884 79.098 49.5524 79.098C50.0179 79.04 50.1909 78.75 50.1909 78.2855ZM56.1114 74.4546V77.9935C56.1114 79.1545 55.6469 80.0255 54.2539 80.0255H52.2804V72.4215H54.2539C55.5889 72.423 56.1114 73.2936 56.1114 74.4546ZM54.0799 78.9821C54.1821 78.9951 54.2859 78.9846 54.3834 78.9513C54.4809 78.918 54.5695 78.8628 54.6423 78.7899C54.7151 78.7171 54.7703 78.6285 54.8036 78.531C54.837 78.4335 54.8475 78.3297 54.8344 78.2275V74.2225C54.8344 73.758 54.6604 73.468 54.0799 73.468H53.5574V78.9821H54.0799ZM60.5799 72.423V78.1696C60.5799 79.3306 60.0574 80.1431 58.7799 80.1431C57.4449 80.1431 56.8644 79.3886 56.8644 78.1696V72.423H58.1414V78.3435C58.1414 78.808 58.3154 79.098 58.7799 79.098C59.2444 79.098 59.4184 78.808 59.4184 78.3435V72.423H60.5799ZM61.3344 78.0536V74.3385C61.3344 73.1195 61.9149 72.307 63.2499 72.307C64.6429 72.307 65.0499 73.1195 65.0499 74.2225V75.151H63.8889V74.1646C63.8889 73.7001 63.7149 73.4095 63.2504 73.4095C62.7859 73.4095 62.6119 73.7595 62.6119 74.2225V78.3435C62.6119 78.808 62.7859 79.156 63.2504 79.156C63.7149 79.156 63.8889 78.866 63.8889 78.4015V77.0085H65.0499V78.3435C65.0499 79.4465 64.5854 80.259 63.2499 80.259C61.9179 80.1435 61.3354 79.2721 61.3354 78.0536H61.3344ZM65.6879 72.423H69.1124V73.468H68.0679V80.027H66.7914V73.468H65.7464L65.6879 72.423ZM69.6929 72.423H70.9699V80.027H69.6929V72.423ZM71.7244 78.0536V74.3385C71.7244 73.1195 72.3049 72.307 73.6399 72.307C74.9749 72.307 75.6134 73.1775 75.6134 74.3385V78.0536C75.6134 79.2141 75.0329 80.0851 73.6399 80.0851C72.3059 80.1436 71.7254 79.2721 71.7254 78.0536H71.7244ZM74.3364 78.2855V74.1646C74.3364 73.7001 74.1624 73.3516 73.6979 73.3516C73.2334 73.3516 73.0594 73.7016 73.0594 74.1646V78.2855C73.0594 78.75 73.2334 79.098 73.6979 79.098C73.7934 79.0869 73.8856 79.0569 73.9695 79.01C74.0533 78.9631 74.1271 78.9001 74.1865 78.8246C74.2459 78.7491 74.2898 78.6627 74.3157 78.5702C74.3416 78.4777 74.349 78.3809 74.3374 78.2855H74.3364ZM77.4129 75.2671V80.0851H76.3099V72.4811H77.5869L78.9799 76.8345V72.4811H80.0249V80.0851H78.9229L77.4129 75.2671Z" fill="white"/>
<path d="M7.77646 54.4291H7.83444V68.8821H10.968V50.0176H8.47296L5.51245 53.442V56.7505H5.57047L7.77646 54.4291Z" fill="white"/>
<path d="M12.8845 53.907V56.1705H15.7845V53.7905C15.7845 52.63 16.365 52.3406 17.0035 52.3406C17.642 52.3406 18.164 52.5725 18.164 53.7335V55.301C18.164 56.868 18.048 57.4485 17.0035 58.551L15.2035 60.4666C13.462 62.3236 12.8235 63.5425 12.8235 65.4V68.8826H21.068V66.2705H15.845V65.4C15.845 63.95 16.3675 63.3685 17.18 62.5L19.2115 60.35C20.8365 58.609 21.185 57.5061 21.185 55.5906V53.733C21.185 51.063 19.908 49.786 17.064 49.786C14.2775 49.786 12.8845 51.295 12.8845 53.907Z" fill="white"/>
<path d="M69.0681 13.2554C66.0396 10.8694 62.4606 10.64 61.0381 10.64C60.3906 10.6214 59.7434 10.683 59.1111 10.8234L58.9276 10.8695C57.0005 11.3285 53.8341 12.0625 50.1176 16.697L50.0261 16.8344C49.9751 16.9182 49.9436 17.0124 49.9341 17.1099C49.922 17.1895 49.9383 17.2707 49.98 17.3394L50.0715 17.477C50.668 18.4865 51.1716 19.404 51.5861 20.1385C51.6215 20.2075 51.6734 20.2668 51.7372 20.311C51.8009 20.3552 51.8746 20.3831 51.9517 20.3922C52.0287 20.4012 52.1068 20.3911 52.1791 20.3629C52.2514 20.3346 52.3156 20.2889 52.3661 20.2299C52.4121 20.1839 52.4121 20.1385 52.4576 20.1385C55.6695 15.6885 58.1936 15.091 59.8451 14.724L60.0285 14.6779C60.3614 14.6157 60.6994 14.585 61.0381 14.586C63.0301 14.5847 64.972 15.2107 66.588 16.3754C68.4695 17.8439 69.3881 20.1839 69.3881 23.3499C69.3881 28.6729 66.8186 30.7375 64.662 31.5175C63.8266 31.8329 62.9394 31.9886 62.0465 31.9765C60.6771 31.988 59.3245 31.6735 58.1006 31.059L57.963 30.967C56.1275 30.141 53.3285 28.4895 50.713 23.2125C45.3445 12.4295 40.848 11.42 37.863 10.732L37.725 10.686C37.0911 10.5564 36.4451 10.4949 35.798 10.5025C32.9473 10.458 30.1655 11.3798 27.9055 13.118C25.9785 14.678 23.6385 17.7065 23.6385 23.2125C23.6385 26.608 24.3265 28.8125 26.1165 31.1505C27.2419 32.5596 28.6743 33.6931 30.3044 34.4643C31.9345 35.2355 33.7193 35.6242 35.5226 35.6005C36.4319 35.5974 37.3387 35.5051 38.23 35.325C39.9102 34.968 41.4918 34.2476 42.864 33.2144L44.4246 34.637C44.5192 34.708 44.6362 34.7423 44.7542 34.7338C44.8721 34.7254 44.983 34.6747 45.0666 34.591C45.1586 34.499 45.2045 34.4075 45.1585 34.3155L46.3516 26.8365V26.7445C46.3486 26.6237 46.2993 26.5087 46.2138 26.4233C46.1284 26.3379 46.0133 26.2888 45.8925 26.286L38.597 28.305H38.459C38.4118 28.3039 38.3652 28.3162 38.3246 28.3405C38.2841 28.3649 38.2513 28.4002 38.23 28.4425C38.1465 28.5291 38.0974 28.6433 38.092 28.7635C38.0904 28.8239 38.1018 28.8839 38.1256 28.9394C38.1495 28.9949 38.1851 29.0447 38.23 29.085L39.744 30.4615C39.0326 30.929 38.2384 31.256 37.4041 31.425C36.77 31.5541 36.1241 31.6156 35.4771 31.6085C34.2888 31.6411 33.1089 31.4017 32.0273 30.9086C30.9458 30.4156 29.9912 29.6819 29.2365 28.7635L29.1906 28.7175C27.9516 27.0675 27.493 25.6434 27.493 23.1674C27.493 20.0014 28.4106 17.6175 30.2461 16.1475C32.3106 14.4975 34.9261 14.4035 35.6606 14.4035C35.9992 14.4025 36.3372 14.4332 36.67 14.4954L36.8535 14.5415C39.2395 15.0915 42.4971 15.826 47.0396 24.9115C49.4256 29.729 52.4081 32.8494 56.1711 34.5009C57.9749 35.3699 59.9503 35.8248 61.9525 35.832C63.3325 35.8418 64.702 35.5927 65.9901 35.0975C68.1926 34.272 73.286 31.4729 73.286 23.1674C73.4235 17.8449 71.036 14.8174 69.0645 13.2564L69.0681 13.2554Z" fill="white"/>
</svg>
