<svg width="97" height="97" viewBox="0 0 97 97" fill="none" xmlns="http://www.w3.org/2000/svg">
<path d="M48.532 0.915527H96.11V48.4935C96.11 61.112 91.0973 73.2137 82.1747 82.1363C73.2521 91.0589 61.1504 96.0715 48.532 96.0715H0.953979V48.4935C0.953979 35.8751 5.96665 23.7734 14.8893 14.8508C23.8119 5.92819 35.9135 0.915527 48.532 0.915527Z" fill="#259943"/>
<path d="M11.782 83.98C15.0485 83.98 16.474 82.2575 16.474 79.585V76.735C16.474 74.953 15.702 73.8245 14.098 73.4685C14.7674 73.2705 15.3497 72.8509 15.7494 72.2786C16.1491 71.7063 16.3425 71.0152 16.298 70.3185V68.6555C16.298 65.9235 14.9915 64.2605 12.022 64.2605C8.69599 64.2605 7.50849 66.2205 7.50849 69.0715V70.7935H10.478V68.834C10.478 67.646 10.834 66.934 11.844 66.934C12.854 66.934 13.21 67.587 13.21 68.656V70.735C13.21 71.7445 12.5565 72.279 11.4875 72.279H10.2405V74.7735H11.606C12.7345 74.7735 13.21 75.308 13.21 76.3175V79.5245C13.21 80.5345 12.7345 81.247 11.7845 81.247C10.656 81.247 10.2995 80.5345 10.2995 79.347V76.615H7.32999V79.169C7.32999 82.079 8.51798 83.9795 11.7845 83.9795" fill="white"/>
<path d="M22.44 68.063H24.282V72.2205H23.332V71.389C23.2769 71.6733 23.1189 71.9273 22.8883 72.1026C22.6578 72.2778 22.3707 72.362 22.082 72.339C20.9535 72.339 20.419 71.448 20.419 70.26V66.46C20.419 65.213 21.013 64.3815 22.379 64.3815C23.8045 64.3815 24.279 65.213 24.279 66.3415V67.054H23.0915V66.282C23.0915 65.807 22.913 65.51 22.438 65.51C21.963 65.51 21.7845 65.866 21.7845 66.3415V70.558C21.7845 71.0335 21.963 71.3895 22.438 71.3895C22.854 71.3895 23.0915 71.152 23.0915 70.6175V69.2515H22.4975V68.0635L22.44 68.063ZM25.172 70.263V66.463C25.172 65.216 25.766 64.3845 27.132 64.3845C28.498 64.3845 29.151 65.2755 29.151 66.463V70.263C29.151 71.451 28.5575 72.342 27.132 72.342C25.766 72.3395 25.172 71.4485 25.172 70.2605V70.263ZM27.8445 70.4415V66.2245C27.8445 65.7495 27.6665 65.393 27.1915 65.393C26.7165 65.393 26.538 65.7495 26.538 66.2245V70.4415C26.538 70.9165 26.716 71.273 27.1915 71.273C27.607 71.2705 27.8445 70.914 27.8445 70.439V70.4415ZM29.9825 70.263V66.463C29.9825 65.216 30.5765 64.3845 31.9425 64.3845C33.3085 64.3845 33.962 65.2755 33.962 66.463V70.263C33.962 71.451 33.368 72.342 31.9425 72.342C30.5765 72.3395 29.982 71.4485 29.982 70.2605L29.9825 70.263ZM32.6555 70.4415V66.2245C32.6555 65.7495 32.477 65.393 32.002 65.393C31.527 65.393 31.3485 65.7495 31.3485 66.2245V70.4415C31.3485 70.9165 31.527 71.273 32.002 71.273C32.477 71.273 32.6555 70.914 32.6555 70.439V70.4415ZM38.7725 66.5215V70.1435C38.7725 71.331 38.2975 72.222 36.8725 72.222H34.8535V64.442H36.8725C38.238 64.4405 38.7725 65.331 38.7725 66.519V66.5215ZM36.694 71.154C36.7986 71.1673 36.9048 71.1566 37.0046 71.1225C37.1043 71.0885 37.195 71.032 37.2695 70.9575C37.344 70.8829 37.4005 70.7923 37.4346 70.6925C37.4686 70.5928 37.4794 70.4865 37.466 70.382V66.282C37.466 65.807 37.288 65.51 36.694 65.51H36.1595V71.152L36.694 71.154ZM43.999 68.838H42.752V72.2825H41.445V64.4995H42.752V67.8255H43.999V64.4995H45.3055V72.28H43.999V68.838ZM46.256 64.443H49.4035V65.512H47.5625V67.7685H48.869V68.838H47.5625V71.2135H49.4035V72.2825H46.256V64.4405V64.443ZM49.9975 72.2825L51.4825 64.502H52.967L54.452 72.2825H53.086L52.8485 70.857H51.482L51.2445 72.2825H49.9975ZM51.6605 69.788H52.732L52.1975 66.6405L51.663 69.788H51.6605ZM55.105 64.443H56.412V71.154H57.956V72.223H55.106L55.105 64.443ZM57.778 64.443H61.282V65.512H60.213V72.223H58.906V65.5095H57.837V64.4405L57.778 64.443ZM64.608 68.838H63.3605V72.2825H62.054V64.4995H63.3605V67.8255H64.608V64.4995H65.9145V72.28H64.608V68.838Z" fill="white"/>
<path d="M20.2425 83.683L21.7275 75.903H23.212L24.697 83.683H23.332L23.0945 82.2575H21.7285L21.491 83.683H20.2425ZM21.9055 81.248H22.9745L22.44 78.1005L21.9055 81.248ZM26.36 78.813V83.7435H25.232V75.962H26.5385L27.964 80.4165V75.962H29.032V83.7435H27.9035L26.36 78.813ZM33.9025 77.9815V81.6045C33.9025 82.792 33.4275 83.683 32.0025 83.683H29.982V75.903H32.0015C33.4275 75.903 33.9025 76.7935 33.9025 77.9815ZM31.824 82.614C31.9286 82.6274 32.0348 82.6166 32.1346 82.5826C32.2343 82.5485 32.3249 82.492 32.3995 82.4175C32.474 82.3429 32.5305 82.2523 32.5646 82.1526C32.5986 82.0528 32.6094 81.9466 32.596 81.842V77.742C32.596 77.267 32.418 76.97 31.824 76.97H31.2895V82.612L31.824 82.614ZM38.951 78.8725L38.238 83.683H36.991L35.922 75.903H37.169L37.763 80.8325L38.416 75.903H39.4855L40.198 80.8325L40.792 75.903H41.9205L40.9105 83.683H39.6635L38.951 78.8725ZM42.633 75.903H45.783V76.972H43.9415V79.229H45.2485V80.298H43.9415V82.6735H45.782V83.7435H42.632V75.903H42.633ZM46.612 75.903H47.919V82.614H49.463V83.683H46.613L46.612 75.903ZM50.1755 75.903H51.482V82.614H53.026V83.683H50.176L50.1755 75.903ZM52.9075 79.11H54.749V80.179H52.9075V79.11ZM55.521 75.903H57.421C58.7275 75.903 59.1435 76.497 59.1435 77.625V78.3975C59.1807 78.6628 59.1237 78.9329 58.9826 79.1606C58.8415 79.3884 58.6251 79.5596 58.371 79.6445C58.6647 79.7028 58.9256 79.8697 59.1016 80.1119C59.2777 80.354 59.356 80.6536 59.321 80.951V81.9605C59.321 83.089 58.846 83.683 57.539 83.683H55.52V75.903H55.521ZM56.8275 79.1695H57.3025C57.7185 79.1695 57.8965 78.932 57.8965 78.516V77.566C57.911 77.477 57.9041 77.3858 57.8764 77.2999C57.8487 77.214 57.801 77.136 57.7372 77.0722C57.6734 77.0084 57.5954 76.9606 57.5096 76.9328C57.4238 76.9051 57.3326 76.8981 57.2435 76.9125H56.768L56.8275 79.1695ZM56.8275 80.179V82.614H57.4215C57.5096 82.6233 57.5986 82.6128 57.6821 82.5832C57.7656 82.5537 57.8414 82.5058 57.904 82.4431C57.9666 82.3805 58.0144 82.3046 58.0439 82.2211C58.0734 82.1376 58.0839 82.0486 58.0745 81.9605V80.773C58.089 80.684 58.0821 80.5928 58.0544 80.5069C58.0267 80.421 57.979 80.343 57.9152 80.2792C57.8514 80.2154 57.7734 80.1676 57.6876 80.1398C57.6018 80.1121 57.5106 80.1051 57.4215 80.1195H56.8275V80.179ZM60.1535 75.903H63.301V76.972H61.46V79.229H62.7665V80.298H61.46V82.6735H63.301V83.7435H60.1535V75.903ZM64.0735 75.903H65.382V83.683H64.0755L64.0735 75.903ZM67.4585 78.813V83.7435H66.332V75.962H67.6385L69.064 80.4165V75.962H70.132V83.7435H69.0035L67.4585 78.813ZM73.0415 79.5255H74.882V83.683H73.932V82.8515C73.877 83.1353 73.7195 83.389 73.4896 83.5642C73.2596 83.7394 72.9732 83.8239 72.685 83.8015C71.5565 83.8015 71.022 82.9105 71.022 81.7225V77.9225C71.022 76.6755 71.616 75.844 72.982 75.844C74.4075 75.844 74.882 76.6755 74.882 77.804V78.5165H73.694V77.7435C73.694 77.2685 73.516 76.9715 73.041 76.9715C72.566 76.9715 72.3875 77.3275 72.3875 77.803V82.0195C72.3875 82.495 72.5655 82.851 73.041 82.851C73.4565 82.851 73.694 82.6135 73.694 82.079V80.7135H73.1V79.5255H73.0415Z" fill="white"/>
<path d="M80.641 32.555C80.641 29.886 78.921 27.6915 76.3115 27.6915C75.007 27.6915 73.4055 29.115 72.575 30.0045C71.745 29.115 70.262 27.6915 68.9575 27.6915C66.348 27.6915 64.5075 29.886 64.5075 32.555C64.5057 33.8338 64.9947 35.0646 65.8735 35.9935L72.5735 42.6935L79.2735 35.9935C80.1526 35.0647 80.6421 33.834 80.641 32.555Z" fill="white"/>
<path d="M52.1735 53.609C51.92 53.6074 51.675 53.5178 51.4803 53.3556C51.2856 53.1933 51.1533 52.9685 51.106 52.7195L47.7255 32.911L42.5655 42.461C42.4482 42.6626 42.2708 42.8225 42.0581 42.9183C41.8454 43.0141 41.6081 43.041 41.3794 42.9953C41.1507 42.9496 40.942 42.8334 40.7825 42.6632C40.623 42.493 40.5207 42.2772 40.49 42.046L38.2955 26.746L34.322 35.701C34.2353 35.8956 34.0937 36.0608 33.9146 36.1763C33.7355 36.2917 33.5266 36.3524 33.3135 36.351H17.775C17.4803 36.3448 17.1997 36.2233 16.9935 36.0127C16.7872 35.8021 16.6717 35.519 16.6717 35.2242C16.6717 34.9294 16.7872 34.6464 16.9935 34.4358C17.1997 34.2251 17.4803 34.1037 17.775 34.0975H32.602L37.882 22.2935C37.9674 22.0727 38.1256 21.8877 38.3304 21.7691C38.5353 21.6504 38.7745 21.6052 39.0085 21.641C39.2475 21.6771 39.4687 21.7889 39.6397 21.9598C39.8106 22.1308 39.9223 22.352 39.9585 22.591L42.2125 38.3665L47.3125 28.9365C47.4121 28.7331 47.5779 28.5695 47.7827 28.4726C47.9874 28.3757 48.219 28.3511 48.4395 28.403C48.6666 28.4284 48.8784 28.5303 49.04 28.6919C49.2016 28.8536 49.3035 29.0653 49.329 29.2925L52.4725 47.6185L63.916 9.54348C63.979 9.33501 64.103 9.1502 64.272 9.01284C64.441 8.87547 64.6473 8.79185 64.8642 8.77276C65.0812 8.75366 65.2988 8.79996 65.4892 8.90569C65.6796 9.01142 65.834 9.17174 65.9325 9.36599L71.9825 21.8795C72.1085 22.1469 72.1231 22.4534 72.023 22.7316C71.923 23.0097 71.7166 23.2368 71.4492 23.3628C71.1818 23.4887 70.8753 23.5033 70.5972 23.4033C70.319 23.3033 70.092 23.0969 69.966 22.8295L65.162 12.866L53.182 52.7195C53.1524 52.9656 53.0334 53.1923 52.8475 53.3563C52.6616 53.5203 52.4214 53.6103 52.1735 53.609Z" fill="white"/>
</svg>
