<svg width="96" height="97" viewBox="0 0 96 97" fill="none" xmlns="http://www.w3.org/2000/svg">
<path d="M47.624 0.915527H95.202V48.4935C95.202 61.112 90.1894 73.2136 81.2668 82.1362C72.3441 91.0588 60.2425 96.0715 47.624 96.0715H0.0460205V48.4935C0.0460205 35.8751 5.05869 23.7734 13.9813 14.8508C22.9039 5.92822 35.0056 0.915527 47.624 0.915527Z" fill="#467839"/>
<path d="M73.6125 26.9255C70.5989 22.8731 66.6793 19.5816 62.1669 17.3138C57.6544 15.0461 52.6742 13.8651 47.624 13.8651C42.5738 13.8651 37.5936 15.0461 33.0812 17.3138C28.5688 19.5816 24.6492 22.8731 21.6355 26.9255C21.5728 27.0354 21.4991 27.1386 21.4155 27.2335C21.4595 27.3215 21.5475 27.409 21.6355 27.541C24.6492 31.5935 28.5688 34.885 33.0812 37.1527C37.5936 39.4204 42.5738 40.6014 47.624 40.6014C52.6742 40.6014 57.6544 39.4204 62.1669 37.1527C66.6793 34.885 70.5989 31.5935 73.6125 27.541C73.6752 27.4313 73.7489 27.3283 73.8325 27.2335C73.7445 27.1455 73.7005 27.0135 73.6125 26.9255ZM38.874 20.4615C39.006 20.2415 39.49 19.67 39.534 19.582C39.6655 19.406 39.884 19.4061 40.0615 19.3621C40.239 19.3181 40.457 19.4061 40.457 19.5381C40.4819 19.7804 40.4362 20.0246 40.3255 20.2416C40.0126 20.5382 39.6108 20.7236 39.182 20.769C38.962 20.725 38.832 20.5495 38.874 20.4615ZM38.3465 21.5615C38.3905 21.5175 38.3905 21.5175 38.3905 21.4735C38.6407 21.2749 38.9506 21.1665 39.27 21.166C39.534 21.122 39.8855 21.2541 39.9295 21.4296C39.9735 21.6051 39.27 21.9575 39.094 22.0455C38.6985 22.3955 38.1265 23.101 37.775 23.1885C37.7315 23.2073 37.6834 23.2133 37.6365 23.2054C37.5897 23.1976 37.5461 23.1765 37.511 23.1445C37.731 22.661 38.0385 22.0895 38.3465 21.5615ZM44.1965 33.6116C44.0973 34.1282 43.8706 34.6118 43.537 35.0186C43.1233 35.3821 42.5928 35.5851 42.042 35.5906C41.558 35.5466 41.47 34.227 41.47 33.5675C41.47 33.3475 41.12 34.0515 40.9425 32.6C40.8105 31.6765 40.239 32.688 40.1925 32.0725C40.146 31.457 39.8425 31.589 39.533 31.193C39.2235 30.797 38.829 31.2371 38.433 31.4131C37.993 31.5891 38.169 31.7205 37.5975 31.501H37.5535C36.9676 30.1556 36.6681 28.7029 36.674 27.2355C36.6667 26.8683 36.6814 26.501 36.718 26.1355C36.7196 26.1127 36.7293 26.0911 36.7455 26.075C36.7617 26.0588 36.7832 26.049 36.806 26.0475C37.3775 25.344 37.3775 25.212 37.3775 25.212L38.037 24.9921C38.6466 25.1009 39.2488 25.2478 39.84 25.432C40.4555 25.6515 41.467 26.2235 42.04 25.9595C42.4795 25.7835 42.79 25.564 42.7435 25.212C42.6995 24.7725 42.3475 24.6845 41.952 24.948C41.776 25.036 41.468 24.2885 41.2045 24.3325C40.941 24.3765 41.512 25.256 41.292 25.256C41.0725 25.3 40.6325 24.3326 40.542 24.2006C40.4515 24.0686 40.1465 23.6731 39.8385 23.9806C39.179 24.5966 38.1675 24.5526 37.9475 24.7306C37.288 25.2141 37.156 24.5545 37.156 24.2025C37.2 24.1145 37.2 24.0265 37.244 23.9385C37.4242 23.8206 37.6298 23.7472 37.8439 23.7244C38.058 23.7015 38.2745 23.7298 38.4755 23.807C38.7395 23.9825 38.959 23.763 39.091 23.631C39.1442 23.57 39.1736 23.4919 39.1736 23.411C39.1736 23.3301 39.1442 23.252 39.091 23.191C39.003 23.0595 39.223 22.9275 39.399 22.8835C39.531 22.8395 40.0145 22.4875 40.2345 22.3995C40.7771 22.2205 41.3629 22.2205 41.9055 22.3995C42.0867 22.4929 42.2941 22.5219 42.4939 22.4821C42.6937 22.4422 42.8741 22.3358 43.0055 22.1801C43.2181 21.9048 43.4884 21.6794 43.7975 21.52C43.973 21.432 43.4015 20.9486 42.962 21.4761C42.522 22.0481 42.302 22.092 42.0825 22.092C41.863 22.092 40.6325 21.784 40.455 21.3885C40.3235 20.9925 40.851 20.6846 41.3345 20.4651C41.818 20.2456 43.0935 20.245 43.4015 20.157C44.061 20.025 44.8965 19.6736 45.3365 19.9811C45.776 20.2451 43.5775 20.7726 44.281 21.1686C44.545 21.3006 45.688 20.5091 46.084 20.2891C47.0075 19.8051 45.1605 19.6295 45.4245 18.662C45.688 17.562 43.1375 17.9586 41.9065 18.0901C43.6627 16.9588 45.7101 16.3628 47.799 16.375C50.2474 16.3744 52.6246 17.1986 54.5472 18.7145C56.4698 20.2304 57.8258 22.3497 58.3965 24.7306C58.3965 24.9501 58.3525 25.126 58.3525 25.214C58.306 25.3409 58.2237 25.4516 58.1157 25.5327C58.0076 25.6139 57.8784 25.662 57.7436 25.6713C57.6087 25.6806 57.4741 25.6507 57.3559 25.5852C57.2378 25.5197 57.1411 25.4213 57.0775 25.302C56.9455 25.126 56.506 24.6865 56.506 25.478C56.506 26.228 57.2535 26.3136 56.5495 26.7531C56.2113 26.993 55.8183 27.1442 55.4065 27.193C55.2164 27.3542 55.0659 27.557 54.9667 27.7858C54.8675 28.0145 54.8223 28.2631 54.8345 28.5121C54.9225 28.9081 55.89 30.0511 55.1845 30.0071C55.0085 30.0071 53.6895 29.0841 53.4695 28.5121C53.2495 27.8966 52.986 27.3251 52.81 26.8411C52.7769 26.7431 52.7209 26.6545 52.6467 26.5825C52.5725 26.5106 52.4822 26.4573 52.3833 26.4272C52.2844 26.3972 52.1798 26.3912 52.0781 26.4097C51.9764 26.4281 51.8805 26.4706 51.7985 26.5336C51.403 26.7971 51.8865 27.061 51.6225 27.6335C51.3585 28.206 51.139 28.689 50.743 28.2495C49.688 27.018 48.1485 27.6335 47.885 26.2705C47.753 25.523 47.1375 25.611 46.6095 25.1705C46.082 24.775 45.774 24.5111 45.686 24.8206C45.598 25.0841 47.357 26.4915 47.489 26.843C47.665 27.371 46.9615 27.8545 46.4335 27.943C45.906 28.075 45.686 27.635 45.1585 27.1075C44.631 26.58 44.411 26.184 44.411 26.6235C44.4284 26.9819 44.5287 27.3314 44.7043 27.6443C44.8798 27.9572 45.1257 28.2249 45.4225 28.4265C45.862 28.6905 46.346 28.8225 46.214 29.306C46.082 29.746 46.214 29.482 45.73 30.0095C45.5274 30.16 45.3679 30.3612 45.2676 30.5928C45.1673 30.8244 45.1297 31.0782 45.1585 31.329C45.2025 32.0325 45.0265 32.0325 44.8945 32.604C44.675 33.264 44.411 32.78 44.191 33.6155M55.932 29.2621C56.282 29.2181 56.8555 29.746 56.6355 29.9215C56.4682 30.0036 56.2817 30.0387 56.096 30.0233C55.9102 30.0079 55.7321 29.9425 55.5805 29.834C55.3165 29.614 55.756 29.2621 55.9305 29.2621M55.447 28.912C55.315 28.868 55.227 28.736 55.139 28.472C55.051 28.208 55.271 28.0326 55.489 28.1646C55.707 28.2966 56.0165 28.604 56.0165 28.78C56.0165 29 55.577 29 55.445 28.912M50.6075 28.912C50.4401 28.9939 50.2536 29.029 50.0679 29.0135C49.8822 28.9981 49.7041 28.9325 49.5525 28.824C49.2885 28.604 49.7285 28.2521 49.9025 28.2521C50.2985 28.2086 50.826 28.736 50.6065 28.912M46.165 31.0665C46.033 31.3305 45.593 33.1336 45.3295 32.9136C45.066 32.6936 45.4615 30.8026 45.5055 30.6271C45.945 29.8796 46.8685 29.9235 46.165 31.0665ZM47.66 38.1906C46.6191 38.1801 45.5842 38.0321 44.582 37.7505C44.5072 37.6877 44.4541 37.6029 44.4304 37.5082C44.4067 37.4134 44.4136 37.3136 44.45 37.223C44.8 36.3435 45.813 35.9916 46.6045 35.9036C48.3635 35.7281 50.694 37.047 51.09 36.827C51.44 36.6075 52.19 35.6401 53.29 35.6841C53.6445 35.6817 53.9933 35.7725 54.3015 35.9475C52.3925 37.4002 50.0604 38.1881 47.6615 38.1906M55.357 35.024C55.2432 34.9731 55.1263 34.9292 55.007 34.8926C54.3915 34.5846 54.4795 35.068 54.1715 34.98C53.8635 34.892 54.5215 34.1885 53.6 34.7605C52.7205 35.332 52.9405 34.6726 52.5885 33.7051C52.193 32.7376 53.0285 31.638 53.732 31.3745C54.3807 31.1601 55.0413 30.9839 55.7105 30.8466C57.03 30.5391 57.294 29.7466 57.5575 30.2311L57.6895 30.495C57.805 30.7115 57.8654 30.9531 57.8655 31.1985C57.3045 32.6337 56.4509 33.9366 55.359 35.024M58.349 29.5276C58.0415 29.4396 56.81 27.7686 57.8215 26.6276C57.9975 26.4516 57.5135 25.9241 57.6455 25.8776C58.1735 25.8336 58.437 26.1856 58.613 26.6276V27.2435C58.571 28.0103 58.4829 28.7739 58.349 29.53" fill="white"/>
<path d="M13.7391 61.8605V83.6021H10.0596V66.9435L7.51756 69.6195H7.45056V65.8065L10.7956 61.8595L13.7391 61.8605Z" fill="white"/>
<path d="M25.7806 66.61V68.4835C25.8106 69.2634 25.5851 70.0319 25.1384 70.6719C24.6916 71.3119 24.0481 71.7884 23.3056 72.0291C25.1116 72.4291 25.9816 73.7015 25.9816 75.708V78.9196C25.9816 81.9296 24.3761 83.8695 20.6966 83.8695C17.0171 83.8695 15.6791 81.729 15.6791 78.451V75.5746H19.0241V78.6515C19.0241 79.923 19.4921 80.7925 20.6966 80.7925C21.8336 80.7925 22.3021 79.9895 22.3021 78.8525V75.24C22.3021 74.1025 21.7671 73.5005 20.4956 73.5005H18.9571V70.6935H20.3621C21.5661 70.6935 22.3021 70.0935 22.3021 68.954V66.6125C22.3021 65.4085 21.9021 64.6725 20.7636 64.6725C19.6251 64.6725 19.2246 65.4085 19.2246 66.8135V69.021H15.8801V67.0811C15.8801 63.8701 17.2176 61.6625 20.9641 61.6625C24.3091 61.6625 25.7806 63.5355 25.7806 66.6125" fill="white"/>
<path d="M29.5271 68.4165V64.135C29.5271 62.73 30.1961 61.7936 31.7346 61.7936C33.3401 61.7936 33.8086 62.73 33.8086 64.001V65.0715H32.4706V63.9346C32.4706 63.3991 32.2706 63.0646 31.7346 63.0646C31.1986 63.0646 30.9986 63.4645 30.9986 64.001V68.751C30.9986 69.286 31.1986 69.6875 31.7346 69.6875C32.2706 69.6875 32.4706 69.353 32.4706 68.818V67.212H33.8086V68.751C33.8086 70.022 33.2731 70.9585 31.7346 70.9585C31.4207 70.9423 31.1133 70.8631 30.8308 70.7253C30.5482 70.5876 30.2964 70.3943 30.0903 70.157C29.8842 69.9197 29.7281 69.6432 29.6313 69.3441C29.5346 69.0451 29.4991 68.7296 29.5271 68.4165Z" fill="white"/>
<path d="M34.7451 61.8605H36.2166V69.42H37.9561V70.624H34.7451V61.8605Z" fill="white"/>
<path d="M40.2971 61.8605H38.8256V70.624H40.2971V61.8605Z" fill="white"/>
<path d="M45.4486 64.9375L44.3781 70.624H43.7091L42.6386 64.9375V70.624H41.4346V61.8605H43.1741L44.1106 66.8105L44.9801 61.8605H46.8531V70.624H45.5151L45.4481 64.9375H45.4486Z" fill="white"/>
<path d="M47.5896 70.691L49.2621 61.9275H50.9346L52.6071 70.691H51.0686L50.8011 69.0856H49.2626L48.9951 70.691H47.5896Z" fill="white"/>
<path d="M49.3955 67.881H50.5995L49.9995 64.3356L49.3995 67.881H49.3955Z" fill="#467839"/>
<path d="M52.406 61.8605H56.353V63.0646H55.149V70.624H53.6775V63.0646H52.474L52.407 61.8605H52.406Z" fill="white"/>
<path d="M57.1555 61.8605H60.701V63.0646H58.627V65.6066H60.0985V66.8105H58.627V69.4866H60.701V70.6906H57.1555V61.8605Z" fill="white"/>
<path d="M29.2595 83.4015L30.932 74.6381H32.6045L34.277 83.4015H32.8055L32.538 81.796H30.9995L30.732 83.4015H29.2605H29.2595Z" fill="white"/>
<path d="M31.1326 80.5935H32.3366L31.7366 77.048L31.1366 80.5935H31.1326Z" fill="#467839"/>
<path d="M34.7451 81.1271V76.8435C34.7451 75.4385 35.4141 74.5021 36.9526 74.5021C38.5581 74.5021 39.0266 75.4385 39.0266 76.7095V77.78H37.6886V76.6436C37.6886 76.1081 37.4886 75.7736 36.9526 75.7736C36.4166 75.7736 36.2166 76.1736 36.2166 76.7101V81.4601C36.2166 81.9951 36.4166 82.3965 36.9526 82.3965C37.4886 82.3965 37.6886 82.062 37.6886 81.527V79.921H39.0241V81.4601C39.0241 82.7311 38.4886 83.6675 36.9501 83.6675C35.3446 83.5335 34.7426 82.4635 34.7426 81.1255L34.7451 81.1271Z" fill="white"/>
<path d="M39.5615 74.6381H43.5085V75.842H42.3045V83.4015H40.833V75.8435H39.629L39.562 74.6395L39.5615 74.6381Z" fill="white"/>
<path d="M45.783 74.6381H44.3115V83.4016H45.783V74.6381Z" fill="white"/>
<path d="M46.7866 81.1271V76.8435C46.7866 75.4385 47.4556 74.5021 48.9941 74.5021C50.5326 74.5021 51.2686 75.5055 51.2686 76.8435V81.125C51.2686 82.463 50.5996 83.4666 48.9941 83.4666C47.4556 83.5351 46.7866 82.4651 46.7866 81.1271Z" fill="white"/>
<path d="M49.7301 81.3936V76.6436C49.7301 76.1081 49.5301 75.707 48.9941 75.707C48.4581 75.707 48.2581 76.1071 48.2581 76.6436V81.3936C48.2581 81.9286 48.4581 82.3301 48.9941 82.3301C49.5296 82.2641 49.7301 81.9301 49.7301 81.3936Z" fill="#467839"/>
<path d="M53.4741 77.849V83.399H52.2031V74.6355H53.6746L55.2801 79.6531V74.6355H56.4841V83.399H55.2131L53.4741 77.849Z" fill="white"/>
</svg>
