<svg width="96" height="97" viewBox="0 0 96 97" fill="none" xmlns="http://www.w3.org/2000/svg">
<path d="M48 0.915527H95.578V48.4935C95.578 61.112 90.5653 73.2136 81.6427 82.1362C72.7201 91.0588 60.6185 96.0715 48 96.0715H0.421997V48.4935C0.421997 35.8751 5.43466 23.7734 14.3573 14.8508C23.2799 5.92816 35.3815 0.915527 48 0.915527Z" fill="#901537"/>
<path d="M14.5655 76.784V74.814C14.5655 73.118 13.9655 71.8595 12.596 71.2575C13.7995 70.6575 14.346 69.616 14.346 68.193V67.482C14.346 64.691 12.923 63.2135 10.1325 63.2135C7.39648 63.2135 5.97397 64.691 5.97397 67.482V68.193C5.97397 69.616 6.52095 70.71 7.66995 71.2575C6.30195 71.8575 5.69995 73.118 5.69995 74.814V76.7295C5.69995 79.4105 6.95848 81.3255 10.1325 81.3255C13.2515 81.3805 14.5645 79.465 14.5645 76.784M8.76447 67.263C8.76447 66.1685 9.14745 65.5665 10.0775 65.5665C11.0625 65.5665 11.4455 66.1665 11.4455 67.263V68.467C11.4455 69.561 11.0625 70.163 10.0775 70.163C9.09245 70.163 8.76447 69.5065 8.76447 68.467V67.263ZM11.555 77.113C11.555 78.207 11.172 78.9735 10.0775 78.9735C9.03795 78.9735 8.65497 78.207 8.65497 77.113V74.213C8.65497 73.119 9.03795 72.4075 10.0775 72.4075C11.172 72.4075 11.555 73.1735 11.555 74.213V77.113Z" fill="white"/>
<path d="M20.379 65.293V68.631C20.379 69.7255 19.941 70.546 18.629 70.546H16.7655V63.378H18.626C19.941 63.378 20.379 64.1985 20.379 65.293ZM18.464 69.561C18.5603 69.5734 18.6581 69.5634 18.75 69.532C18.8419 69.5007 18.9253 69.4487 18.994 69.38C19.0626 69.3114 19.1147 69.2279 19.146 69.136C19.1774 69.0442 19.1873 68.9463 19.175 68.85V65.074C19.175 64.6365 19.011 64.363 18.464 64.363H17.9715V69.563L18.464 69.561ZM21.145 63.378H24.045V64.363H22.349V66.442H23.5525V67.427H22.349V69.616H24.045V70.601H21.145V63.378ZM24.645 68.6855V65.1855C24.645 64.0355 25.192 63.2705 26.4505 63.2705C27.764 63.2705 28.147 64.0365 28.147 65.076V65.9515H27.0525V64.9665C27.0525 64.529 26.8885 64.2555 26.4525 64.2555C26.0165 64.2555 25.8525 64.5835 25.8525 65.0215V68.9065C25.8525 69.344 26.0165 69.6725 26.4525 69.6725C26.8885 69.6725 27.0525 69.399 27.0525 68.961V67.648H28.147V68.9065C28.147 69.946 27.7095 70.712 26.4505 70.712C25.194 70.6555 24.647 69.78 24.647 68.6855H24.645ZM28.9155 63.378H31.8155V64.363H30.1195V66.442H31.323V67.427H30.1195V69.616H31.8155V70.601H28.9155V63.378ZM33.512 66.0045V70.546H32.4725V63.378H33.676L34.9895 67.482V63.378H35.9745V70.546H34.9345L33.512 66.0045ZM36.631 63.378H39.8595V64.363H38.8745V70.546H37.6705V64.363H36.6855V63.378H36.631ZM44.2915 66.114L43.635 70.546H42.485L41.5 63.378H42.65L43.197 67.9195L43.797 63.378H44.782L45.4385 67.9195L45.986 63.378H47.0255L46.0955 70.546H45.001L44.2915 66.114ZM47.52 68.6855V65.1855C47.52 64.0355 48.067 63.2705 49.3255 63.2705C50.584 63.2705 51.186 64.091 51.186 65.1855V68.6855C51.186 69.78 50.639 70.601 49.3255 70.601C48.0655 70.6555 47.52 69.78 47.52 68.6855ZM49.9275 68.9045V65.0195C49.9275 64.5815 49.7635 64.2535 49.3275 64.2535C48.8915 64.2535 48.7275 64.5815 48.7275 65.0195V68.9045C48.7275 69.342 48.8915 69.6705 49.3275 69.6705C49.7655 69.616 49.9275 69.342 49.9275 68.9045ZM53.156 67.263V70.546H51.952V63.378H53.702C54.9055 63.378 55.3435 63.978 55.3435 64.9645V65.895C55.3435 66.661 55.0695 67.099 54.3585 67.263L55.5085 70.546H54.25L53.1555 67.263H53.156ZM53.156 64.363V66.6085H53.539C53.6207 66.6214 53.7044 66.6149 53.7831 66.5893C53.8618 66.5637 53.9333 66.5199 53.9918 66.4614C54.0503 66.4028 54.0942 66.3313 54.1198 66.2526C54.1453 66.1739 54.1519 66.0903 54.139 66.0085V64.9685C54.1519 64.8868 54.1453 64.8031 54.1198 64.7244C54.0942 64.6457 54.0503 64.5742 53.9918 64.5157C53.9333 64.4572 53.8618 64.4133 53.7831 64.3878C53.7044 64.3622 53.6207 64.3556 53.539 64.3685L53.156 64.363ZM57.3145 67.044V70.544H56.1105V63.376H57.3155V66.5495L58.629 63.376H59.833L58.4085 66.6085L59.8315 70.548H58.573L57.314 67.048L57.3145 67.044ZM61.528 70.544L62.896 63.376H64.2655L65.6335 70.544H64.375L64.156 69.231H62.8955L62.6765 70.544H61.528ZM63.06 68.244H64.045L63.5525 65.344L63.06 68.244ZM67.0545 66.0005V70.542H66.0155V63.374H67.2195L68.5325 67.478V63.374H69.5175V70.542H68.478L67.0545 66.0005ZM73.9495 65.289V68.627C73.9495 69.7215 73.5115 70.542 72.1995 70.542H70.339V63.374H72.1995C73.511 63.378 73.949 64.1985 73.949 65.293L73.9495 65.289ZM72.034 69.557C72.1303 69.5693 72.2282 69.5594 72.3201 69.528C72.412 69.4966 72.4954 69.4447 72.5641 69.376C72.6328 69.3074 72.6849 69.2239 72.7163 69.1321C72.7477 69.0402 72.7577 68.9423 72.7455 68.846V65.07C72.7455 64.6325 72.5815 64.359 72.034 64.359H71.5415V69.559L72.034 69.557Z" fill="white"/>
<path d="M16.7655 73.9386H19.6655V74.9236H17.9695V77.0031H19.173V77.9881H17.9695V80.1766H19.6655V81.1616H16.7655V73.9386ZM20.158 79.2466V75.7466C20.158 74.5966 20.705 73.8311 21.964 73.8311C23.277 73.8311 23.66 74.5976 23.66 75.6371V76.5126H22.5655V75.5821C22.5655 75.1446 22.4015 74.8711 21.9655 74.8711C21.5295 74.8711 21.3655 75.1991 21.3655 75.6371V79.5221C21.3655 79.9596 21.5295 80.2881 21.9655 80.2881C22.4015 80.2881 22.5655 80.0146 22.5655 79.5766V78.2636H23.66V79.5221C23.66 80.5616 23.2225 81.3276 21.964 81.3276C20.707 81.2161 20.16 80.3956 20.16 79.2466H20.158ZM24.3165 79.2466V75.7466C24.3165 74.5966 24.864 73.8311 26.1225 73.8311C27.381 73.8311 27.983 74.6521 27.983 75.7466V79.2466C27.983 80.3411 27.4355 81.1616 26.1225 81.1616C24.9205 81.2166 24.3185 80.3956 24.3185 79.2466H24.3165ZM26.779 79.4651V75.5801C26.779 75.1426 26.615 74.8141 26.179 74.8141C25.743 74.8141 25.579 75.1426 25.579 75.5801V79.4651C25.579 79.9031 25.7435 80.2316 26.179 80.2316C26.6155 80.1766 26.781 79.9031 26.781 79.4651H26.779ZM29.734 76.6201V81.1616H28.694V73.9936H29.898L31.2115 78.0976V73.9936H32.196V81.1616H31.1565L29.734 76.6201ZM32.9075 79.2466V75.7466C32.9075 74.5966 33.4575 73.8311 34.7135 73.8311C35.9695 73.8311 36.5735 74.6521 36.5735 75.7466V79.2466C36.5735 80.3411 36.0265 81.1616 34.7135 81.1616C33.457 81.2166 32.9095 80.3956 32.9095 79.2466H32.9075ZM35.315 79.4651V75.5801C35.315 75.1426 35.151 74.8141 34.715 74.8141C34.279 74.8141 34.115 75.1426 34.115 75.5801V79.4651C34.115 79.9031 34.279 80.2316 34.715 80.2316C35.153 80.1766 35.315 79.9031 35.315 79.4651ZM40.568 76.4556L39.6925 81.1056H39.1455L38.27 76.4556V81.1056H37.285V73.9386H38.708L39.474 77.9886L40.185 73.9386H41.7175V81.1086H40.623L40.568 76.4586V76.4556ZM42.374 73.9386H43.578V81.1086H42.374V73.9386ZM44.2345 79.2466V75.7466C44.2345 74.5966 44.7815 73.8311 46.04 73.8311C47.3535 73.8311 47.7365 74.5976 47.7365 75.6371V76.5126H46.642V75.5821C46.642 75.1446 46.478 74.8711 46.042 74.8711C45.606 74.8711 45.442 75.1991 45.442 75.6371V79.5221C45.442 79.9596 45.6065 80.2881 46.042 80.2881C46.4775 80.2881 46.642 80.0146 46.642 79.5766V78.2636H47.7365V79.5221C47.7365 80.5616 47.2985 81.3276 46.04 81.3276C44.7835 81.2161 44.2365 80.3956 44.2365 79.2466H44.2345ZM51.676 77.2766H53.3725V81.1086H52.497V80.3426C52.4464 80.6043 52.3011 80.8382 52.089 80.9997C51.8769 81.1612 51.6127 81.2389 51.347 81.2181C50.307 81.2181 49.8145 80.3971 49.8145 79.3026V75.8026C49.8145 74.6526 50.362 73.8876 51.6205 73.8876C52.9335 73.8876 53.3705 74.6536 53.3705 75.6931V76.3501H52.276V75.6386C52.276 75.2006 52.112 74.9271 51.676 74.9271C51.24 74.9271 51.076 75.2556 51.076 75.6931V79.5781C51.076 80.0161 51.24 80.3446 51.676 80.3446C52.059 80.3446 52.276 80.1256 52.276 79.6331V78.3746H51.729V77.2801L51.676 77.2766ZM55.397 77.8236V81.1086H54.193V73.9386H55.943C57.147 73.9386 57.585 74.5386 57.585 75.5256V76.4556C57.585 77.2221 57.311 77.6596 56.6 77.8236L57.75 81.1071H56.4915L55.397 77.8236ZM55.397 74.9236V77.1671H55.78C55.8617 77.18 55.9454 77.1734 56.0241 77.1478C56.1028 77.1222 56.1743 77.0784 56.2328 77.0199C56.2913 76.9614 56.3352 76.8899 56.3607 76.8112C56.3863 76.7325 56.3929 76.6488 56.38 76.5671V75.5276C56.3929 75.4459 56.3863 75.3622 56.3607 75.2835C56.3352 75.2048 56.2913 75.1333 56.2328 75.0748C56.1743 75.0163 56.1028 74.9724 56.0241 74.9468C55.9454 74.9213 55.8617 74.9146 55.78 74.9276L55.397 74.9236ZM58.133 79.2466V75.7466C58.133 74.5966 58.68 73.8311 59.9385 73.8311C61.197 73.8311 61.799 74.6521 61.799 75.7466V79.2466C61.799 80.3411 61.252 81.1616 59.9385 81.1616C58.682 81.2166 58.135 80.3956 58.135 79.2466H58.133ZM60.5955 79.4651V75.5801C60.5955 75.1426 60.431 74.8141 59.9955 74.8141C59.56 74.8141 59.3955 75.1426 59.3955 75.5801V79.4651C59.3955 79.9031 59.5595 80.2316 59.9955 80.2316C60.433 80.1766 60.5975 79.9031 60.5975 79.4651H60.5955ZM64.918 76.6746L64.2655 81.1086H63.1155L62.1305 73.9401H63.2805L63.828 78.4821L64.428 73.9401H65.413L66.0695 78.4821L66.617 73.9401H67.6565L66.726 81.1086H65.576L64.919 76.6761L64.918 76.6746ZM68.092 73.9386H71.3205V74.9236H70.3355V81.1086H69.077V74.9236H68.092V73.9386ZM74.056 77.9331H72.906V81.1086H71.7055V73.9386H72.909V77.0031H74.059V73.9386H75.263V81.1086H74.059L74.056 77.9331Z" fill="white"/>
<path d="M63.498 17.081L54.221 25.9061C54.0403 26.0678 53.9 26.2697 53.8116 26.4955C53.7231 26.7213 53.6888 26.9646 53.7115 27.206V51.8701C53.7112 51.937 53.7242 52.0034 53.7497 52.0654C53.7752 52.1273 53.8127 52.1836 53.8601 52.231C53.9075 52.2783 53.9637 52.3158 54.0257 52.3413C54.0876 52.3668 54.154 52.3798 54.221 52.3796H63.781C63.8479 52.3798 63.9143 52.3668 63.9762 52.3413C64.0381 52.3158 64.0943 52.2783 64.1417 52.2309C64.189 52.1835 64.2264 52.1272 64.2519 52.0653C64.2773 52.0034 64.2903 51.937 64.29 51.8701V17.3086C64.3465 16.9691 64.1205 16.4586 63.498 17.0821M36.854 28.5086L27.577 37.3336C27.3963 37.4953 27.256 37.6972 27.1675 37.923C27.079 38.1488 27.0448 38.3922 27.0675 38.6336V51.8141C27.0672 51.8811 27.0802 51.9475 27.1057 52.0094C27.1312 52.0713 27.1687 52.1276 27.2161 52.1749C27.2635 52.2223 27.3197 52.2598 27.3817 52.2853C27.4436 52.3108 27.51 52.3239 27.577 52.3236H37.137C37.2039 52.3239 37.2703 52.3109 37.3322 52.2853C37.3941 52.2598 37.4503 52.2223 37.4976 52.1749C37.545 52.1276 37.5824 52.0713 37.6079 52.0093C37.6334 51.9474 37.6463 51.881 37.646 51.8141V28.7341C37.7025 28.4511 37.4765 27.9421 36.854 28.5076" fill="white"/>
<path d="M67.741 6.38955C67.7494 6.30991 67.7294 6.22986 67.6845 6.16353C67.6622 6.1421 67.6353 6.12594 67.6059 6.11617C67.5765 6.1064 67.5453 6.10324 67.5145 6.10702H67.4015L60.3305 7.69051H60.2155C60.1726 7.69653 60.1329 7.71658 60.1025 7.74752C60.0757 7.77306 60.0544 7.80382 60.0398 7.83785C60.0252 7.87189 60.0177 7.90849 60.0177 7.94552C60.0177 7.98254 60.0252 8.01921 60.0398 8.05324C60.0544 8.08728 60.0757 8.11797 60.1025 8.14351L60.159 8.20003L61.7995 9.84054L45.734 25.906L38.3235 18.4956C38.2815 18.4679 38.2323 18.4532 38.182 18.4532C38.1317 18.4532 38.0825 18.4679 38.0405 18.4956L36.004 20.5321L24.1245 32.4115C24.0969 32.4535 24.0822 32.5028 24.0822 32.5531C24.0822 32.6034 24.0969 32.6525 24.1245 32.6945L26.161 34.731C26.2031 34.7587 26.2522 34.7734 26.3025 34.7734C26.3528 34.7734 26.402 34.7587 26.444 34.731L38.21 23.021L43.5845 28.395L45.621 30.4315C45.663 30.4592 45.712 30.474 45.7623 30.474C45.8125 30.474 45.8616 30.4592 45.9035 30.4315L64.119 12.2165L65.816 13.9135C65.8416 13.9403 65.8723 13.9617 65.9063 13.9763C65.9403 13.9909 65.977 13.9984 66.014 13.9984C66.0511 13.9984 66.0877 13.9909 66.1217 13.9763C66.1558 13.9617 66.1865 13.9403 66.212 13.9135C66.2335 13.8912 66.2497 13.8643 66.2595 13.8349C66.2692 13.8055 66.2723 13.7743 66.2685 13.7436L67.8525 6.50301L67.7395 6.38955H67.741Z" fill="white"/>
<path d="M50.261 30.0921L45.792 34.6175C45.7502 34.6457 45.7009 34.6608 45.6505 34.6608C45.6001 34.6608 45.5508 34.6457 45.509 34.6175L41.436 30.4881C40.701 29.7526 40.531 30.3751 40.531 30.6581V51.9281C40.5307 51.995 40.5437 52.0613 40.5692 52.1231C40.5947 52.185 40.6322 52.2412 40.6795 52.2885C40.7268 52.3359 40.783 52.3734 40.8449 52.3988C40.9068 52.4243 40.9731 52.4373 41.04 52.437H50.6005C50.6674 52.4373 50.7337 52.4243 50.7956 52.3988C50.8575 52.3734 50.9137 52.3359 50.961 52.2885C51.0083 52.2412 51.0458 52.185 51.0713 52.1231C51.0968 52.0613 51.1098 51.995 51.1095 51.9281V30.3186C51.1095 29.9226 50.8835 29.4136 50.2595 30.0921" fill="white"/>
</svg>
