<svg width="96" height="97" viewBox="0 0 96 97" fill="none" xmlns="http://www.w3.org/2000/svg">
<path d="M48.156 0.915527H95.734V48.4935C95.734 61.112 90.7213 73.2136 81.7987 82.1362C72.8761 91.0588 60.7745 96.0715 48.156 96.0715H0.578003V48.4935C0.578003 35.8751 5.59067 23.7734 14.5133 14.8508C23.4359 5.92822 35.5375 0.915527 48.156 0.915527Z" fill="#F36E0B"/>
<mask id="mask0_1826_2960" style="mask-type:luminance" maskUnits="userSpaceOnUse" x="24" y="9" width="48" height="49">
<path d="M71.7135 9.82861H24.824V57.2506H71.7135V9.82861Z" fill="white"/>
</mask>
<g mask="url(#mask0_1826_2960)">
<path d="M71.339 36.1696L60.3635 29.8271V17.1386C60.3636 17.0069 60.3291 16.8775 60.2634 16.7634C60.1976 16.6493 60.103 16.5545 59.989 16.4886L48.642 9.92908C48.5285 9.86327 48.3997 9.82861 48.2685 9.82861C48.1373 9.82861 48.0085 9.86327 47.895 9.92908L36.545 16.4886C36.431 16.5545 36.3364 16.6493 36.2707 16.7634C36.2049 16.8775 36.1704 17.0069 36.1705 17.1386V29.8271L25.1965 36.1696C25.0826 36.2356 24.9881 36.3304 24.9224 36.4445C24.8568 36.5586 24.8223 36.6879 24.8225 36.8196V49.9436C24.8223 50.0752 24.8568 50.2046 24.9224 50.3187C24.9881 50.4328 25.0826 50.5276 25.1965 50.5936L36.5465 57.1531C36.6608 57.2181 36.79 57.2524 36.9215 57.2524C37.053 57.2524 37.1822 57.2181 37.2965 57.1531L48.2705 50.8106L59.241 57.1531C59.3553 57.2181 59.4845 57.2524 59.616 57.2524C59.7475 57.2524 59.8767 57.2181 59.991 57.1531L71.341 50.5936C71.455 50.5276 71.5496 50.4329 71.6154 50.3188C71.6811 50.2047 71.7156 50.0753 71.7155 49.9436V36.8211C71.7156 36.6894 71.6811 36.56 71.6154 36.4459C71.5496 36.3318 71.455 36.237 71.341 36.1711M47.5205 48.6436L38.4205 43.3816L47.5205 38.1166V48.6436ZM58.1175 30.2596L49.0175 35.5211V24.9976L58.1175 30.2596ZM47.5205 35.5211L38.4205 30.2596L47.5205 24.9976V35.5211ZM49.7655 36.8211L59.6155 31.1271L69.4655 36.8211L59.6155 42.5161L49.7655 36.8211ZM58.8655 28.9626L49.7655 23.6996L58.8655 18.4371V28.9626ZM46.7715 23.6996L37.6715 28.9626V18.4371L46.7715 23.6996ZM36.1715 55.2046L26.3215 49.5101V38.1176L36.1715 43.8176V55.2046ZM37.6715 55.2046V44.6811L46.7715 49.9436L37.6715 55.2046ZM70.217 49.5101L60.367 55.2046V43.8151L70.217 38.1151V49.5101Z" fill="white"/>
</g>
<path d="M18.5811 83.7655L19.7416 77.6096H20.9021L22.0626 83.7655H21.0031L20.8031 82.6555H19.7436L19.5435 83.7655H18.5811ZM19.8931 81.7976H20.7006L20.2966 79.325L19.8931 81.7976ZM23.3745 79.8806V83.7655H22.5171V77.6096H23.5261L24.6361 81.1416V77.6096H25.494V83.7655H24.5855L23.3745 79.8806ZM29.2281 79.2246V82.1005C29.2281 83.059 28.8246 83.7655 27.7141 83.7655H26.0995V77.6096H27.7141C28.8246 77.6096 29.2281 78.3161 29.2281 79.2246ZM27.6135 82.908C27.6949 82.9155 27.777 82.905 27.8538 82.8772C27.9307 82.8494 28.0005 82.805 28.0582 82.7472C28.116 82.6894 28.1604 82.6197 28.1882 82.5428C28.216 82.466 28.2265 82.384 28.2191 82.3026V79.0731C28.2311 78.9908 28.2237 78.9068 28.1975 78.8278C28.1713 78.7489 28.127 78.6772 28.0682 78.6184C28.0094 78.5596 27.9377 78.5153 27.8588 78.4891C27.7798 78.4629 27.6958 78.4555 27.6135 78.4676H27.159V82.9586L27.6135 82.908ZM30.8426 77.6081H31.9025V83.7641H30.8426V77.6081ZM33.4161 79.8791V83.7641H32.5561V77.6081H33.565L34.675 81.14V77.6081H35.5331V83.7641H34.6245L33.4136 79.8791H33.4161ZM36.1916 77.6081H38.6135V78.466H37.2006V80.2321H38.2606V81.0901H37.2006V83.8145H36.1411L36.1916 77.6081ZM40.1275 80.9386V83.7641H39.0676V77.6081H40.5816C41.6411 77.6081 41.9946 78.1125 41.9946 78.9705V79.778C42.0331 80.044 41.9719 80.3147 41.8228 80.5383C41.6738 80.7618 41.4473 80.9224 41.187 80.989L42.1961 83.7641H41.0861L40.1275 80.9386ZM40.1275 78.4156V80.333H40.4806C40.5489 80.342 40.6184 80.3351 40.6837 80.3129C40.749 80.2907 40.8083 80.2538 40.857 80.205C40.9058 80.1563 40.9427 80.097 40.9649 80.0317C40.9871 79.9664 40.994 79.8969 40.9851 79.8286V78.9201C40.9851 78.5671 40.8351 78.4156 40.4806 78.4156H40.1275ZM42.4991 83.7655L43.6596 77.6096H44.8201L45.9806 83.7655H44.9211L44.7211 82.6555H43.6111L43.411 83.7655H42.4991ZM43.7606 81.7976H44.5676L44.1641 79.325L43.7606 81.7976ZM46.3341 82.403V81.5935H47.2925V82.4511C47.2925 82.8046 47.4426 83.0066 47.7971 83.0066C48.1 83.0066 48.2515 82.8066 48.2515 82.4511V82.2011C48.2445 82.0332 48.2 81.8691 48.1214 81.7206C48.0428 81.5722 47.9319 81.4432 47.7971 81.343L47.1916 80.7376C46.5861 80.1321 46.3341 79.779 46.3341 79.0725V78.8726C46.3233 78.6821 46.3547 78.4915 46.4259 78.3145C46.4971 78.1374 46.6064 77.9783 46.746 77.8482C46.8857 77.7182 47.0522 77.6204 47.2339 77.562C47.4155 77.5035 47.6078 77.4858 47.7971 77.51C48.857 77.51 49.2606 78.0146 49.2606 78.9231V79.4276H48.3021V78.8726C48.3021 78.5196 48.1521 78.3681 47.7971 78.3681C47.7288 78.3596 47.6595 78.3669 47.5945 78.3892C47.5294 78.4116 47.4703 78.4485 47.4217 78.4972C47.373 78.5458 47.3361 78.6049 47.3138 78.6699C47.2914 78.735 47.2841 78.8043 47.2925 78.8726V79.0225C47.2925 79.3755 47.4925 79.5775 47.7971 79.88L48.453 80.536C49.008 81.0915 49.3111 81.4445 49.3111 82.151V82.4536C49.3309 82.6551 49.3049 82.8585 49.2351 83.0485C49.1653 83.2386 49.0534 83.4105 48.9078 83.5512C48.7622 83.692 48.5866 83.798 48.3943 83.8614C48.202 83.9247 47.9978 83.9438 47.7971 83.9171C47.5964 83.9332 47.3946 83.9047 47.2063 83.8336C47.0179 83.7625 46.8477 83.6505 46.7078 83.5058C46.5679 83.361 46.4618 83.187 46.3972 82.9964C46.3326 82.8057 46.311 82.603 46.3341 82.403ZM49.6135 77.6096H52.3891V78.4676H51.5311V83.7675H50.4715V78.4676H49.6135V77.6096ZM53.9536 80.94V83.7655H52.8936V77.6096H54.4061C55.4656 77.6096 55.8191 78.1141 55.8191 78.9721V79.7796C55.8576 80.0455 55.7964 80.3162 55.6473 80.5398C55.4983 80.7633 55.2718 80.9239 55.0116 80.9906L56.0206 83.7655H54.9106L53.9536 80.94ZM53.9536 78.4171V80.3346H54.3065C54.3748 80.343 54.4441 80.3358 54.5092 80.3134C54.5742 80.291 54.6333 80.254 54.6819 80.2054C54.7306 80.1568 54.7675 80.0977 54.7898 80.0327C54.8122 79.9676 54.8195 79.8983 54.8111 79.83V78.9215C54.8111 78.5685 54.661 78.4171 54.3065 78.4171H53.9536ZM59.4536 77.6096V82.252C59.4536 83.2105 59.0496 83.8161 57.9901 83.8161C56.8801 83.8161 56.426 83.2105 56.426 82.252V77.6096H57.4855V82.3531C57.4855 82.7061 57.6356 82.9586 57.9901 82.9586C58.3446 82.9586 58.4946 82.7061 58.4946 82.3531V77.6096H59.4536ZM60.1096 82.151V79.174C60.1096 78.215 60.5636 77.5086 61.6736 77.5086C62.8341 77.5086 63.1371 78.1646 63.1371 79.0731V79.7796H62.1781V78.9721C62.1781 78.5686 62.0281 78.3665 61.6736 78.3665C61.3191 78.3665 61.1691 78.619 61.1691 79.0225V82.3531C61.1691 82.7061 61.3191 83.0091 61.6736 83.0091C62.0281 83.0091 62.1781 82.7565 62.1781 82.403V81.2436H63.1371V82.3036C63.1371 83.1611 62.7836 83.817 61.6736 83.817C60.5636 83.817 60.1096 83.1095 60.1096 82.151ZM63.3391 77.6096H66.1141V78.4676H65.2561V83.7675H64.1961V78.4676H63.3386L63.3391 77.6096ZM69.6466 77.6096V82.252C69.6466 83.2105 69.2426 83.8161 68.1831 83.8161C67.0731 83.8161 66.6186 83.2105 66.6186 82.252V77.6096H67.6786V82.3531C67.6786 82.7061 67.8286 82.9586 68.1831 82.9586C68.5376 82.9586 68.6876 82.7061 68.6876 82.3531V77.6096H69.6466ZM71.3116 80.94V83.7655H70.2521V77.6096H71.7655C72.8251 77.6096 73.1786 78.1141 73.1786 78.9721V79.7796C73.2171 80.0455 73.1559 80.3162 73.0068 80.5398C72.8578 80.7633 72.6313 80.9239 72.371 80.9906L73.3806 83.7655H72.2701L71.3116 80.94ZM71.3116 78.4171V80.3346H71.6646C71.7328 80.343 71.8021 80.3357 71.8672 80.3133C71.9323 80.2909 71.9914 80.254 72.04 80.2054C72.0887 80.1568 72.1257 80.0977 72.1481 80.0327C72.1706 79.9676 72.1779 79.8983 72.1695 79.83V78.9215C72.1695 78.5685 72.0196 78.4171 71.6646 78.4171H71.3116ZM73.8345 77.6096H76.306V78.4676H74.8931V80.2335H75.9025V81.0916H74.8931V82.9586H76.306V83.8161H73.8335V77.6096H73.8345Z" fill="white"/>
<path d="M17.88 67.8206H18.9395V73.9766H17.88V67.8206ZM20.403 70.1416V74.0271H19.545V67.8711H20.556L21.6665 71.4031V67.8711H22.524V74.0271H21.616L20.405 70.1416H20.403ZM26.256 69.4856V72.3622C26.256 73.3207 25.8525 74.0271 24.7425 74.0271H23.1275V67.8711H24.7425C25.903 67.8206 26.256 68.5271 26.256 69.4856ZM24.6415 73.1691C24.7229 73.1766 24.805 73.1662 24.8819 73.1385C24.9588 73.1107 25.0286 73.0663 25.0864 73.0085C25.1442 72.9507 25.1886 72.8809 25.2163 72.804C25.2441 72.7271 25.2546 72.645 25.247 72.5636V69.3341C25.2589 69.2519 25.2514 69.1679 25.2252 69.089C25.199 69.0101 25.1547 68.9385 25.096 68.8797C25.0372 68.8209 24.9655 68.7766 24.8866 68.7504C24.8077 68.7242 24.7238 68.7167 24.6415 68.7286H24.187V73.2196L24.6415 73.1696V73.1691ZM29.9415 67.8191V72.4611C29.9415 73.4201 29.538 74.0256 28.4785 74.0256C27.368 74.0256 26.914 73.4201 26.914 72.4611V67.8191H27.9735V72.5621C27.9735 72.9156 28.1235 73.1676 28.4785 73.1676C28.8335 73.1676 28.983 72.9176 28.983 72.5621V67.8191H29.9415ZM30.4965 72.6631V71.8556H31.456V72.7136C31.456 73.0666 31.606 73.2686 31.9605 73.2686C32.2635 73.2686 32.4145 73.0686 32.4145 72.7136V72.4611C32.4075 72.2934 32.3632 72.1294 32.2846 71.981C32.2061 71.8326 32.0953 71.7037 31.9605 71.6036L31.355 70.9981C30.7495 70.3926 30.497 70.0391 30.497 69.3326V69.1326C30.4863 68.942 30.5176 68.7514 30.5889 68.5744C30.6601 68.3973 30.7694 68.2381 30.9091 68.1081C31.0488 67.978 31.2154 67.8803 31.3971 67.8219C31.5789 67.7635 31.7712 67.7458 31.9605 67.7701C33.02 67.7701 33.424 68.2746 33.424 69.1831V69.6876H32.465V69.1326C32.465 68.7791 32.315 68.6276 31.9605 68.6276C31.8922 68.6193 31.8229 68.6266 31.7579 68.6491C31.6928 68.6715 31.6338 68.7084 31.5851 68.7571C31.5365 68.8058 31.4996 68.8649 31.4772 68.93C31.4549 68.995 31.4476 69.0643 31.456 69.1326V69.2826C31.456 69.6361 31.656 69.8376 31.9605 70.1406L32.6165 70.7966C33.1715 71.3516 33.4745 71.7046 33.4745 72.4111V72.7141C33.4944 72.9157 33.4684 73.119 33.3986 73.3091C33.3287 73.4992 33.2168 73.6711 33.0712 73.8118C32.9256 73.9525 32.7501 74.0586 32.5578 74.1219C32.3654 74.1853 32.1612 74.2043 31.9605 74.1776C30.901 74.0776 30.497 73.4711 30.497 72.6636L30.4965 72.6631ZM33.726 67.8191H36.5015V68.6766H35.6435V73.9766H34.584V68.6766H33.726V67.8191ZM38.015 71.1491V73.9751H37.006V67.8191H38.52C39.5795 67.8191 39.9325 68.3236 39.9325 69.1816V69.9886C39.9713 70.2545 39.9103 70.5253 39.7613 70.7489C39.6123 70.9725 39.3858 71.133 39.1255 71.1996L40.1345 73.9751H39.0245L38.015 71.1491ZM38.015 68.6766V70.5941H38.3685C38.4369 70.6031 38.5064 70.5961 38.5717 70.5739C38.6369 70.5517 38.6962 70.5148 38.745 70.4661C38.7937 70.4173 38.8306 70.358 38.8528 70.2928C38.875 70.2275 38.8819 70.158 38.873 70.0896V69.1816C38.873 68.8281 38.723 68.6766 38.3685 68.6766H38.015ZM42.3545 71.6541V73.9751H41.295V71.6541L40.1345 67.8191H41.194L41.7995 70.1401L42.405 67.8191H43.4145L42.3545 71.6541ZM44.5245 73.0666L44.02 74.4796H43.4145L43.5645 73.0161H44.523L44.5245 73.0666ZM46.1895 67.8191H47.2495V73.9751H46.1895V67.8191ZM48.7125 70.1401V74.0256H47.855V67.8696H48.864L49.974 71.4016V67.8696H50.832V74.0256H49.9235L48.7125 70.1401ZM52.346 70.1401V74.0256H51.486V67.8696H52.495L53.6055 71.4016V67.8696H54.463V74.0256H53.556L52.346 70.1401ZM55.121 72.4106V69.4336C55.121 68.4751 55.575 67.7686 56.6855 67.7686C57.796 67.7686 58.2495 68.4751 58.2495 69.4336V72.4106C58.2495 73.3696 57.7955 74.0761 56.6855 74.0761C55.5755 74.0761 55.119 73.3711 55.119 72.4121L55.121 72.4106ZM57.2405 72.5606V69.2301C57.2405 68.8771 57.0905 68.5746 56.6855 68.5746C56.332 68.5746 56.181 68.8246 56.181 69.2301V72.5606C56.181 72.9141 56.331 73.2166 56.6855 73.2166C57.04 73.2166 57.2385 72.9676 57.2385 72.5636L57.2405 72.5606ZM62.236 67.8176L61.0755 73.9736H59.965L58.8045 67.8176H59.8645L60.5705 72.1066L61.277 67.8176H62.236ZM62.086 73.9736L63.2465 67.8176H64.407L65.5675 73.9736H64.506L64.306 72.8636H63.246L63.046 73.9736H62.086ZM63.3475 72.0561H64.155L63.751 69.5836L63.3475 72.0561ZM65.467 67.8176H68.242V68.6751H67.381V73.9751H66.321V68.6751H65.4635L65.467 67.8176ZM68.7465 67.8176H69.8065V73.9736H68.7465V67.8176ZM70.4625 72.4091V69.4321C70.4625 68.4736 70.9165 67.7671 72.0265 67.7671C73.1365 67.7671 73.591 68.4736 73.591 69.4321V72.4091C73.591 73.3681 73.1365 74.0746 72.0265 74.0746C70.9165 74.0746 70.459 73.3711 70.459 72.4121L70.4625 72.4091ZM72.531 72.5591V69.2286C72.531 68.8756 72.381 68.5731 71.976 68.5731C71.623 68.5731 71.4715 68.8231 71.4715 69.2286V72.5591C71.4715 72.9126 71.6215 73.2151 71.976 73.2151C72.3765 73.2196 72.5275 72.9676 72.5275 72.5636L72.531 72.5591ZM75.1045 70.1371V74.0226H74.247V67.8666H75.256L76.366 71.3986V67.8666H77.224V74.0226H76.3155L75.1045 70.1371Z" fill="white"/>
<path d="M16.4175 71.8065C16.4175 69.2835 15.3075 67.4165 12.4315 67.4165C9.50453 67.4165 8.39453 69.0315 8.39453 71.5545V73.9765C8.39453 76.651 9.45403 78.013 11.422 78.013C11.887 78.0383 12.3493 77.9278 12.7525 77.6949C13.1557 77.462 13.4825 77.1169 13.693 76.7015V80.2335C13.693 81.2425 13.289 81.8986 12.3305 81.8986C11.321 81.8986 10.968 81.3436 10.968 80.2841V79.174H8.44503V80.0316C8.44503 82.4536 9.30303 84.119 12.381 84.119C15.257 84.119 16.4175 82.252 16.4175 79.6785V71.8065Z" fill="white"/>
<path d="M13.693 74.3295C13.643 75.238 13.2385 75.8435 12.381 75.8435C11.422 75.8435 11.069 75.2885 11.069 74.1785V71.3525C11.069 70.293 11.4725 69.6875 12.381 69.6875C13.2895 69.6875 13.6425 70.293 13.6425 71.3525V74.3295H13.693Z" fill="#F36E0B"/>
</svg>
