<svg width="96" height="97" viewBox="0 0 96 97" fill="none" xmlns="http://www.w3.org/2000/svg">
<path d="M48.312 0.915527H95.89V48.4935C95.89 61.112 90.8773 73.2136 81.9547 82.1362C73.0321 91.0588 60.9305 96.0715 48.312 96.0715H0.734009V48.4935C0.734009 35.8751 5.74668 23.7734 14.6693 14.8508C23.5919 5.92822 35.6935 0.915527 48.312 0.915527Z" fill="#E00B81"/>
<path d="M30.7766 68.2704V71.934H29.433V63.8745H31.3871C32.7301 63.8745 33.2185 64.546 33.2185 65.645V66.683C33.2185 67.538 32.9135 68.0265 32.1185 68.2095L33.401 71.873H31.9966L30.7766 68.2704ZM30.7766 64.9734V67.477H31.204C31.2956 67.4917 31.3894 67.4844 31.4776 67.4559C31.5658 67.4273 31.646 67.3782 31.7115 67.3126C31.7771 67.247 31.8262 67.1668 31.8547 67.0786C31.8832 66.9903 31.8903 66.8965 31.8755 66.805V65.645C31.8904 65.5534 31.8832 65.4597 31.8547 65.3715C31.8262 65.2832 31.7771 65.203 31.7116 65.1375C31.646 65.0719 31.5658 65.0228 31.4776 64.9943C31.3893 64.9658 31.2956 64.9586 31.204 64.9734H30.7766ZM34.1346 63.8735H37.3705V64.9734H35.478V67.2935H36.821V68.3935H35.478V70.836H37.3705V71.936H34.1346V63.8735ZM41.95 66.0735V69.798C41.95 71.019 41.4615 71.935 39.996 71.935H37.92V63.8755H39.996C41.462 63.8745 41.95 64.7899 41.95 66.0724V66.0735ZM39.812 70.835C39.9196 70.8487 40.0288 70.8376 40.1313 70.8025C40.2339 70.7674 40.327 70.7094 40.4037 70.6327C40.4803 70.556 40.5383 70.4629 40.5733 70.3603C40.6083 70.2577 40.6193 70.1485 40.6055 70.041V65.8279C40.6055 65.3399 40.4225 65.0345 39.812 65.0345H39.2621V70.8345L39.812 70.835ZM46.7726 63.8745V69.9189C46.7726 71.1399 46.2225 71.995 44.8795 71.995C43.4755 71.995 42.8645 71.2014 42.8645 69.9189V63.8745H44.208V70.1025C44.208 70.5905 44.391 70.896 44.8795 70.896C45.368 70.896 45.5511 70.5905 45.5511 70.1025V63.8745H46.7726ZM47.627 69.858V65.9504C47.627 64.6679 48.238 63.8135 49.642 63.8135C51.1075 63.8135 51.535 64.6679 51.535 65.8279V66.805H50.3135V65.705C50.3135 65.2165 50.1305 64.9115 49.642 64.9115C49.1535 64.9115 48.9706 65.2775 48.9706 65.766V70.1014C48.9706 70.5894 49.1535 70.956 49.642 70.956C50.1305 70.956 50.3135 70.651 50.3135 70.1625V68.697H51.535V70.1014C51.535 71.2614 51.0465 72.116 49.642 72.116C48.239 71.9935 47.6281 71.079 47.6281 69.858H47.627ZM52.3896 63.8745H55.6255V64.9745H53.733V67.2945H55.076V68.3945H53.733V70.837H55.6255V71.937H52.3896V63.8745ZM60.5105 66.0745V69.799C60.5105 71.0199 60.022 71.936 58.5565 71.936H56.4805V63.8765H58.5565C60.023 63.8745 60.5121 64.7899 60.5121 66.0724L60.5105 66.0745ZM58.3735 70.837C58.481 70.8507 58.5903 70.8396 58.6928 70.8045C58.7954 70.7694 58.8885 70.7114 58.9651 70.6347C59.0418 70.558 59.0998 70.4649 59.1348 70.3623C59.1698 70.2597 59.1808 70.1505 59.1671 70.043V65.83C59.1671 65.342 58.984 65.0365 58.3735 65.0365H57.8235V70.8365L58.3735 70.837Z" fill="white"/>
<path d="M10.901 68.576V83.718H14.201V63.9355H11.5755L8.46155 67.4771V70.957H8.52255L10.8425 68.576H10.901ZM26.41 78.6505V69.0645C26.41 65.9505 24.8836 63.691 21.4641 63.691C18.1061 63.691 16.5795 65.9505 16.5795 69.0645V78.6505C16.5795 81.7005 18.1061 84.0236 21.4641 84.0236C24.8225 83.9626 26.41 81.703 26.41 78.6505ZM19.8766 79.1385V68.515C19.8766 67.2935 20.3041 66.439 21.4641 66.439C22.6241 66.439 23.0515 67.2935 23.0515 68.515V79.1385C23.0515 80.3601 22.6241 81.2145 21.4641 81.2145C20.3041 81.2145 19.8766 80.3601 19.8766 79.1385Z" fill="white"/>
<path d="M29.433 75.5975H30.7766V83.5975H29.433V75.5975ZM32.791 78.528V83.5935H31.631V75.5935H32.9745L34.44 80.1725V75.5935H35.54V83.5935H34.3795L32.791 78.528ZM36.3326 75.5975H39.5685V76.6975H37.6761V79.0175H39.019V80.1176H37.6761V82.5601H39.5685V83.66H36.3326V75.6005V75.5975ZM41.5826 84.1475V83.5975C40.4825 83.4145 40.056 82.6205 40.056 81.5215V77.614C40.056 76.3315 40.6665 75.4771 42.071 75.4771C43.4755 75.4771 44.147 76.3925 44.147 77.614V81.5215C44.147 82.3765 43.8415 83.1091 43.17 83.4146L44.147 83.5975V84.5745L41.5826 84.1475ZM42.8035 81.8275V77.431C42.8035 76.9425 42.6205 76.5765 42.132 76.5765C41.6435 76.5765 41.4605 76.9425 41.4605 77.431V81.8275C41.4605 82.3155 41.6435 82.682 42.132 82.682C42.2326 82.6702 42.3298 82.6387 42.4181 82.5892C42.5064 82.5398 42.584 82.4733 42.6465 82.3937C42.709 82.3141 42.7552 82.2229 42.7823 82.1254C42.8094 82.0279 42.817 81.9259 42.8045 81.8255L42.8035 81.8275ZM48.7875 75.5995V81.6436C48.7875 82.8651 48.2375 83.7195 46.8945 83.7195C45.49 83.7195 44.8795 82.9261 44.8795 81.6436V75.5991H46.2231V81.827C46.2231 82.315 46.406 82.6205 46.8945 82.6205C47.383 82.6205 47.566 82.315 47.566 81.827V75.5991L48.7875 75.5995ZM49.2145 83.5995L50.741 75.5995H52.2675L53.794 83.5995H52.3896L52.1455 82.134H50.742L50.498 83.5995H49.2145ZM50.9245 81.035H52.0245L51.4745 77.799L50.9245 81.035ZM54.4045 75.601H55.748V82.501H57.3355V83.601H54.4045V75.601ZM57.946 75.601H59.289V83.601H57.9471L57.946 75.601ZM59.8995 75.601H63.502V76.701H62.402V83.601H61.062V76.701H59.962V75.601H59.9005H59.8995ZM64.1125 75.601H65.4561V83.601H64.112L64.1125 75.601ZM66.2495 75.601H69.4861V76.701H67.593V79.0211H68.9366V80.121H67.593V82.5635H69.4861V83.6635H66.2495V75.604V75.601ZM70.0356 81.89V80.79H71.3175V81.89C71.3175 82.317 71.5005 82.6226 71.989 82.6226C72.4165 82.6226 72.5995 82.317 72.5995 81.89V81.5845C72.594 81.3572 72.536 81.1343 72.4301 80.933C72.3242 80.7318 72.1733 80.5578 71.989 80.4246L71.1956 79.6306C70.4016 78.8981 70.0956 78.4095 70.0956 77.4935V77.2495C70.0956 76.2725 70.706 75.479 71.988 75.479C73.3315 75.479 73.881 76.1505 73.881 77.3105V77.9821H72.662V77.3105C72.662 76.822 72.479 76.639 72.0515 76.639C71.6855 76.639 71.441 76.822 71.441 77.3105V77.4935C71.4611 77.7092 71.5257 77.9183 71.6308 78.1076C71.7359 78.297 71.8792 78.4624 72.0515 78.5935L72.9066 79.4485C73.6391 80.181 74.0065 80.6695 74.0065 81.5245V81.8911C74.0065 82.9911 73.396 83.7835 72.0526 83.7835C70.5261 83.7225 70.0375 82.9291 70.0375 81.8911L70.0356 81.89Z" fill="white"/>
<path d="M32.4935 22.9486L23.77 31.6646L32.4855 40.4456L32.4935 22.9486ZM64.1305 40.4606L72.854 31.6871L64.1385 22.9636L64.1305 40.4606ZM57.0965 15.9151L48.3235 7.1936L39.5995 15.9091L57.0965 15.9151ZM39.585 47.4936L48.3005 56.2171L57.082 47.5016L39.585 47.4936ZM38.8455 23.5286L57.8455 23.5376L57.843 28.7926L38.843 28.7836L38.8455 23.5286ZM38.8405 34.3851L57.8405 34.3936L57.838 39.8796L38.838 39.8706L38.8405 34.3851Z" fill="white"/>
</svg>
