<svg width="96" height="97" viewBox="0 0 96 97" fill="none" xmlns="http://www.w3.org/2000/svg">
<path d="M47.688 0.915527H95.266V48.4935C95.266 61.112 90.2533 73.2137 81.3307 82.1363C72.4081 91.0589 60.3065 96.0715 47.688 96.0715H0.109985V48.4935C0.109985 35.8751 5.12265 23.7734 14.0453 14.8508C22.9679 5.92819 35.0695 0.915527 47.688 0.915527Z" fill="#C31D2E"/>
<path d="M17.008 82.235H20.891V78.278H22.5335V75.067H20.891V57.967H16.859L9.83798 75.739V78.203H17.008V82.235ZM13.4245 75.067L17.083 65.062V75.067H13.4245Z" fill="white"/>
<path d="M27.803 72.3791H31.76V73.7231H29.4455V76.5606H31.088V77.9046H29.445V80.8911H31.7595V82.2351H27.803V72.3791ZM37.659 74.9936V79.5481C37.659 81.0416 37.059 82.1616 35.2695 82.1616H32.731V72.3791H35.2695C37.0615 72.3791 37.659 73.4991 37.659 74.9936ZM35.0455 80.8176C35.1769 80.8344 35.3105 80.8209 35.4359 80.778C35.5613 80.7352 35.6752 80.6642 35.7689 80.5705C35.8626 80.4768 35.9336 80.3629 35.9764 80.2375C36.0193 80.1121 36.0328 79.9785 36.016 79.8471V74.6936C36.016 74.0936 35.792 73.7226 35.0455 73.7226H34.3735V80.8161L35.0455 80.8176ZM43.5575 72.3801V79.7721C43.5575 81.2656 42.8855 82.3111 41.243 82.3111C39.5255 82.3111 38.779 81.3401 38.779 79.7721V72.3791H40.4215V79.9936C40.4215 80.5936 40.6455 80.9646 41.243 80.9646C41.8405 80.9646 42.064 80.5911 42.064 79.9936V72.3791L43.5575 72.3801ZM44.603 79.6231V74.8436C44.603 73.2756 45.3495 72.2306 47.067 72.2306C48.859 72.2306 49.3815 73.2756 49.3815 74.6946V75.8891H47.888V74.6196C47.888 74.0226 47.664 73.6491 47.067 73.6491C46.47 73.6491 46.2455 74.0991 46.2455 74.6946V79.9936C46.2455 80.5936 46.4695 81.0391 47.067 81.0391C47.6645 81.0391 47.888 80.6656 47.888 80.0686V78.2766H49.3815V79.9936C49.3815 81.4126 48.7815 82.4576 47.067 82.4576C45.3495 82.3076 44.603 81.1886 44.603 79.6206V79.6231ZM49.979 82.1616L51.8455 72.3801H53.712L55.579 82.1616H53.8615L53.5615 80.3696H51.844L51.544 82.1616H49.979ZM51.995 79.1001H53.338L52.666 75.1431L51.994 79.1001H51.995ZM55.355 72.3801H59.76V73.7241H58.416V82.1616H56.7735V73.7231H55.4295V72.3791L55.355 72.3801ZM60.655 72.3801H62.298V82.1616H60.655V72.3801ZM63.418 79.6231V74.8436C63.418 73.2756 64.1645 72.2306 65.8815 72.2306C67.5985 72.2306 68.4205 73.3506 68.4205 74.8436V79.6226C68.4205 81.1156 67.6735 82.2356 65.8815 82.2356C64.1655 82.3101 63.419 81.1901 63.419 79.6221L63.418 79.6231ZM66.7775 79.9231V74.6231C66.7775 74.0261 66.554 73.5781 65.9565 73.5781C65.359 73.5781 65.135 74.0281 65.135 74.6231V79.9231C65.135 80.5231 65.359 80.9686 65.9565 80.9686C66.0794 80.9541 66.1983 80.9154 66.3062 80.8549C66.4142 80.7943 66.5091 80.7129 66.5854 80.6155C66.6618 80.5181 66.7182 80.4066 66.7514 80.2874C66.7845 80.1681 66.7937 80.0434 66.7785 79.9206L66.7775 79.9231ZM70.8845 76.0406V82.2376H69.4655V72.4541H71.1085L72.9005 78.0541V72.4541H74.2445V82.2351H72.8255L70.8845 76.0406Z" fill="white"/>
<path d="M29.6695 68.4221V67.7501C28.3255 67.5261 27.803 66.5551 27.803 65.2111V60.4326C27.803 58.8646 28.5495 57.8196 30.267 57.8196C31.9845 57.8196 32.8055 58.9391 32.8055 60.4326V65.2111C32.8055 66.2566 32.4325 67.1526 31.611 67.5261L32.8055 67.7501V68.9436L29.6695 68.4211V68.4221ZM31.163 65.5846V60.2086C31.163 59.6086 30.939 59.1631 30.3415 59.1631C29.744 59.1631 29.5205 59.6131 29.5205 60.2086V65.5846C29.5205 66.1846 29.7445 66.6301 30.3415 66.6301C30.8645 66.6301 31.163 66.1821 31.163 65.5846ZM38.6295 57.9686V65.3606C38.6295 66.8541 37.9575 67.8991 36.315 67.8991C34.5975 67.8991 33.851 66.9286 33.851 65.3606V57.9686H35.4935V65.5846C35.4935 66.1846 35.7175 66.5551 36.315 66.5551C36.9125 66.5551 37.136 66.1821 37.136 65.5846V57.9686H38.6295ZM39.3015 67.7501L41.168 57.9686H43.035L44.9015 67.7501H43.184L42.884 65.9581H41.168L40.868 67.7501H39.3015ZM41.3175 64.6886H42.6615L41.9895 60.7311L41.3175 64.6886ZM45.648 57.9686H47.291V66.4061H49.232V67.7501H45.648V57.9686ZM50.0535 57.9686H51.696V67.7501H50.0535V57.9686ZM52.5175 57.9686H56.923V59.3126H55.579V67.7501H53.938V59.3126H52.594L52.5175 57.9686ZM60.88 64.0186V67.7521H59.238V64.0186L57.3715 57.9686H59.088L60.0585 61.7021L61.0295 57.9686H62.5975L60.88 64.0186Z" fill="white"/>
<path d="M42.923 25.2646L28.873 17.1466V43.3966L42.923 47.6261V25.2646ZM44.43 25.3146V47.6271L58.576 43.3491V17.149L44.43 25.3146ZM69.562 16.5146C69.562 16.0762 69.3879 15.6558 69.0779 15.3459C68.768 15.0359 68.3476 14.8618 67.9092 14.8618C67.4709 14.8618 67.0505 15.0359 66.7406 15.3459C66.4306 15.6558 66.2565 16.0762 66.2565 16.5146V18.3146H69.562V16.5146ZM66.694 42.9106H66.2565L67.9065 48.6951L69.5595 42.9106V19.5771H66.254V42.9106H66.694Z" fill="white"/>
<path d="M61.588 18.3135L60.0815 17.098V44.077L44.477 49.1325H42.923L27.3675 44.8065V17.098L25.8605 18.3135V45.827L42.826 50.5425H44.576L60.18 45.584L61.5895 45.1465L61.588 18.3135Z" fill="white"/>
</svg>
