<svg width="96" height="97" viewBox="0 0 96 97" fill="none" xmlns="http://www.w3.org/2000/svg">
<path d="M48.376 0.915527H95.954V48.4935C95.954 61.112 90.9413 73.2136 82.0187 82.1362C73.0961 91.0588 60.9944 96.0715 48.376 96.0715H0.797974V48.4935C0.797974 35.8751 5.81064 23.7734 14.7332 14.8508C23.6559 5.92822 35.7575 0.915527 48.376 0.915527Z" fill="#F0F0F0"/>
<path d="M33.361 28.6345C34.0397 27.4488 34.8812 26.3641 35.861 25.412L27.706 16.468C25.6509 18.4339 23.8999 20.6946 22.5105 23.176L33.361 28.6345Z" fill="#51C316"/>
<path d="M53.354 22.321C54.562 22.9052 55.7077 23.6103 56.7735 24.4255L64.929 15.547C62.7424 13.7024 60.307 12.1748 57.6945 11.009L53.354 22.321Z" fill="#DDA62B"/>
<path d="M72.0315 25.0176L61.246 30.41C61.7641 31.6292 62.1172 32.9119 62.296 34.2245L74.3315 33.1066C73.9554 30.3142 73.1809 27.5901 72.0315 25.0176Z" fill="#C61427"/>
<path d="M60.391 28.832L71.1765 23.4391C69.8562 20.9479 68.1467 18.6834 66.1125 16.7311L57.9575 25.609C58.9167 26.5631 59.736 27.6483 60.391 28.832Z" fill="#499F31"/>
<path d="M31.2565 36.5265V35.803L19.2215 34.7531C19.1665 35.3432 19.1445 35.936 19.1555 36.5286C19.1504 38.788 19.4154 41.04 19.945 43.2366L31.5855 39.8826C31.3782 38.7763 31.2681 37.654 31.2565 36.5286" fill="#3D7F41"/>
<path d="M58.8785 46.3936C58.0234 47.4457 57.0276 48.3751 55.919 49.1555L62.298 59.415C64.6692 57.8221 66.7778 55.8696 68.548 53.6276L58.8785 46.3936Z" fill="#FCC300"/>
<path d="M62.4295 36.5265C62.421 37.6302 62.311 38.731 62.101 39.8146L73.7415 43.1691C74.2745 40.9954 74.5394 38.7646 74.5305 36.5265C74.5414 35.9557 74.5195 35.3848 74.465 34.8165L62.4295 35.9346V36.5265Z" fill="#FF3809"/>
<path d="M35.005 46.5885L25.405 53.8885C27.1772 56.0898 29.285 57.9982 31.651 59.5436L38.0305 49.2841C36.8749 48.5653 35.8515 47.6531 35.005 46.5875" fill="#FF9D00"/>
<path d="M31.454 34.0276C31.647 32.681 32.0462 31.3721 32.6375 30.147L21.852 24.7545C20.6293 27.3278 19.8299 30.0816 19.4845 32.9095L31.454 34.0276Z" fill="#0095DB"/>
<path d="M60.8515 60.3335L54.538 50.074C53.3831 50.7399 52.1445 51.2488 50.855 51.587L53.091 63.4905C55.8275 62.8522 58.4465 61.7868 60.8515 60.3335Z" fill="#A31541"/>
<path d="M61.6405 41.5245C61.2452 42.7642 60.669 43.9387 59.9305 45.01L69.598 52.3101C71.2003 50.0367 72.4426 47.5299 73.281 44.8781L61.6405 41.5245Z" fill="#11BCE3"/>
<path d="M49.079 51.9155C48.3389 52.0248 47.5907 52.0688 46.843 52.047C46.2272 52.036 45.6125 51.9922 45.0015 51.9155L42.7655 63.8196C44.1147 64.0294 45.4776 64.1392 46.843 64.1481C48.3424 64.1502 49.839 64.0181 51.315 63.7535L49.079 51.9155Z" fill="#FF690C"/>
<path d="M47.8295 20.9401C49.1485 21.0151 50.4526 21.2582 51.71 21.6636L56.0505 10.4175C53.4045 9.48306 50.6333 8.95098 47.8295 8.83899V20.9401Z" fill="#E71F35"/>
<path d="M43.2915 51.7185C41.9592 51.4148 40.6755 50.9278 39.477 50.2715L33.098 60.531C35.5786 61.9437 38.2629 62.9642 41.0555 63.5565L43.2915 51.7185Z" fill="#DE0466"/>
<path d="M42.1735 21.5975C43.452 21.1868 44.7784 20.9436 46.1195 20.874V8.77405C43.2942 8.83226 40.4965 9.34302 37.833 10.287L42.1735 21.5975Z" fill="#16476B"/>
<path d="M33.887 45.2075C33.1052 44.0713 32.4854 42.8317 32.0455 41.5245L20.405 44.8785C21.2737 47.6242 22.5603 50.2196 24.2195 52.5735L33.887 45.2075Z" fill="#BF8B20"/>
<path d="M37.176 24.2936C38.2143 23.4908 39.3393 22.8068 40.53 22.2545L36.1895 11.0085C33.6174 12.0909 31.2229 13.5542 29.0865 15.3495L37.176 24.2936Z" fill="#00679E"/>
<path d="M14.9405 67.1235H18.676V68.2545H17.496V75.4825H16.07V68.2545H14.89L14.9405 67.1235ZM21.972 71.7946H20.595V75.4825H19.1695V67.1235H20.595V70.6641H21.972V67.1235H23.398V75.4825H21.972V71.7946ZM24.1355 67.1235H27.479V68.2545H25.512V70.6641H26.889V71.7946H25.512V74.3516H27.479V75.4825H24.1355V67.1235ZM31.4125 71.0081H33.426V75.4825H32.3935V74.548C32.3336 74.8511 32.1664 75.1225 31.9225 75.3121C31.6786 75.5018 31.3745 75.5971 31.066 75.5806C29.837 75.5806 29.296 74.5975 29.296 73.319V69.287C29.296 67.9595 29.935 67.0255 31.4105 67.0255C32.9835 67.0255 33.426 67.9105 33.426 69.1395V69.8771H32.148V69.041C32.148 68.5005 31.951 68.2056 31.4595 68.2056C30.968 68.2056 30.722 68.5496 30.722 69.0906V73.5651C30.722 74.0566 30.9185 74.4501 31.4105 74.4501C31.853 74.4501 32.0985 74.2041 32.0985 73.6631V72.188H31.4105L31.4125 71.0081ZM34.166 67.1235H35.5915V74.3516H37.2635V75.4825H34.1635L34.166 67.1235ZM37.5095 73.319V69.287C37.5095 67.9595 38.1485 67.0255 39.6235 67.0255C41.0985 67.0255 41.738 67.9595 41.738 69.287V73.319C41.738 74.5975 41.0985 75.5806 39.6235 75.5806C38.1485 75.5806 37.5095 74.5975 37.5095 73.319ZM40.3595 73.5155V69.041C40.3595 68.5495 40.114 68.156 39.622 68.156C39.13 68.156 38.8845 68.5005 38.8845 69.041V73.5155C38.8845 74.0075 39.1305 74.4005 39.622 74.4005C40.163 74.4005 40.3595 74.0565 40.3595 73.5155ZM42.474 67.1235H44.49C45.9155 67.1235 46.358 67.763 46.358 68.943V69.7791C46.3973 70.0633 46.3351 70.3523 46.1822 70.5951C46.0294 70.8379 45.7958 71.0191 45.5225 71.1066C45.837 71.1624 46.1186 71.3355 46.3103 71.5911C46.502 71.8466 46.5894 72.1654 46.555 72.483V73.614C46.555 74.794 46.014 75.433 44.6375 75.433H42.476L42.474 67.1235ZM43.8505 70.6145H44.3425C44.4354 70.6251 44.5296 70.6146 44.618 70.5837C44.7063 70.5529 44.7865 70.5026 44.8527 70.4364C44.9188 70.3702 44.9692 70.2899 44.9999 70.2015C45.0307 70.1132 45.0412 70.019 45.0305 69.926V68.8936C45.0456 68.7998 45.0383 68.7037 45.0091 68.6133C44.9798 68.5229 44.9296 68.4407 44.8624 68.3735C44.7953 68.3064 44.7131 68.2561 44.6227 68.2269C44.5323 68.1977 44.4363 68.1904 44.3425 68.2056H43.8505V70.6145ZM43.8505 71.6965V74.3025H44.49C44.5838 74.3177 44.6799 74.3104 44.7703 74.2811C44.8608 74.2519 44.943 74.2015 45.0102 74.1343C45.0773 74.067 45.1276 73.9849 45.1568 73.8944C45.1859 73.8039 45.1932 73.7078 45.178 73.614V72.3356C45.1932 72.2418 45.1859 72.1456 45.1568 72.0552C45.1276 71.9647 45.0773 71.8824 45.0102 71.8152C44.943 71.748 44.8608 71.6977 44.7703 71.6685C44.6799 71.6392 44.5838 71.6318 44.49 71.647H43.8505V71.6965ZM46.8505 75.4825L48.424 67.1235H50.0465L51.62 75.4825H50.194L49.948 73.958H48.476L48.23 75.4825H46.8505ZM48.6205 72.827H49.7515L49.2105 69.4835L48.6205 72.827ZM52.1115 67.1235H53.5375V74.3516H55.209V75.4825H52.109L52.1115 67.1235ZM58.995 71.0081H61.011V75.4825H59.9785V74.548C59.9186 74.8511 59.7514 75.1225 59.5075 75.3121C59.2636 75.5018 58.9595 75.5971 58.651 75.5806C57.4215 75.5806 56.881 74.5975 56.881 73.319V69.287C56.881 67.9595 57.52 67.0255 58.995 67.0255C60.5685 67.0255 61.011 67.9105 61.011 69.1395V69.8771H59.7325V69.041C59.7325 68.5005 59.536 68.2056 59.0445 68.2056C58.553 68.2056 58.307 68.5496 58.307 69.0906V73.5651C58.307 74.0566 58.5035 74.4501 58.995 74.4501C59.4375 74.4501 59.6835 74.2041 59.6835 73.6631V72.188H58.996V71.0081H58.995ZM61.6995 73.319V69.287C61.6995 67.9595 62.3385 67.0255 63.8135 67.0255C65.2885 67.0255 65.928 67.9595 65.928 69.287V73.319C65.928 74.5975 65.289 75.5806 63.8135 75.5806C62.338 75.5806 61.7005 74.5975 61.7005 73.319H61.6995ZM64.5495 73.5155V69.041C64.5495 68.5495 64.304 68.156 63.812 68.156C63.32 68.156 63.0745 68.5005 63.0745 69.041V73.5155C63.0745 74.0075 63.3205 74.4005 63.812 74.4005C64.353 74.4005 64.5495 74.0565 64.5495 73.5155ZM66.2215 75.4825L67.795 67.1235H69.4175L70.991 75.4825H69.565L69.319 73.958H67.844L67.598 75.4825H66.2215ZM67.9915 72.827H69.126L68.585 69.4835L67.995 72.827H67.9915ZM71.4825 67.1235H72.9085V74.3516H74.58V75.4825H71.48L71.4825 67.1235ZM74.876 73.6631V72.5325H76.204V73.6631C76.204 74.1551 76.4005 74.4005 76.892 74.4005C77.3345 74.4005 77.5315 74.1056 77.5315 73.6631V73.319C77.5276 73.0854 77.4674 72.8562 77.3561 72.6508C77.2448 72.4453 77.0856 72.2698 76.892 72.139L76.0565 71.303C75.2695 70.5165 74.876 70.0246 74.876 69.0906V68.7955C74.876 67.763 75.466 66.9761 76.843 66.9761C78.269 66.9761 78.8095 67.6646 78.8095 68.8936V69.582H77.5315V68.8435C77.5315 68.352 77.2855 68.1061 76.843 68.1061C76.7509 68.0996 76.6585 68.1129 76.5721 68.1453C76.4856 68.1776 76.4071 68.2281 76.3418 68.2933C76.2766 68.3586 76.226 68.4371 76.1937 68.5236C76.1614 68.61 76.148 68.7025 76.1545 68.7946V68.9935C76.1545 69.4855 76.4005 69.731 76.843 70.1245L77.728 71.0095C78.5145 71.796 78.859 72.239 78.859 73.173V73.5665C78.859 74.697 78.2195 75.5331 76.794 75.5331C75.417 75.5831 74.8765 74.7466 74.8765 73.6646L74.876 73.6631ZM17.891 79.3666H16.219V81.235H15.876V77.3511H18.0885V77.6951H16.22V79.0715H17.892V79.3666H17.891ZM19.366 81.2845C18.481 81.2845 18.284 80.7435 18.284 79.957C18.284 79.1705 18.481 78.629 19.366 78.629C20.251 78.629 20.4475 79.17 20.4475 79.957C20.4475 80.744 20.251 81.2845 19.366 81.2845ZM19.366 78.9241C18.6775 78.9241 18.6285 79.367 18.6285 79.957C18.6285 80.547 18.6785 80.9895 19.366 80.9895C20.0535 80.9895 20.1035 80.547 20.1035 79.957C20.1035 79.367 20.005 78.9241 19.366 78.9241ZM22.466 78.974C22.3732 78.9335 22.2719 78.9164 22.171 78.9241C21.9166 78.9102 21.6629 78.9609 21.4335 79.0715V81.235H21.0895V78.629H21.286L21.386 78.826C21.6275 78.6491 21.9232 78.5621 22.222 78.5801C22.3229 78.5727 22.4241 78.5898 22.517 78.63V78.9745L22.466 78.974ZM24.138 78.384C24.138 78.9245 24.482 78.974 25.072 79.072C25.8585 79.172 26.3015 79.367 26.3015 80.105C26.3015 80.6455 26.0065 81.285 24.8755 81.285C24.5067 81.2763 24.1416 81.2098 23.7935 81.088V80.744C24.1363 80.885 24.505 80.952 24.8755 80.9406C25.662 80.9406 25.908 80.5475 25.908 80.105C25.908 79.564 25.662 79.4656 25.023 79.3671C24.0885 79.2671 23.7445 79.023 23.7445 78.384C23.7445 77.9415 23.941 77.302 25.072 77.302C25.4261 77.295 25.7778 77.3622 26.1045 77.499V77.843C25.7789 77.7026 25.4264 77.6355 25.072 77.6465C24.283 77.6435 24.1355 77.99 24.1355 78.3835L24.138 78.384ZM27.138 80.5475C27.138 80.8915 27.335 80.99 27.679 80.99C27.9177 81.0047 28.1558 80.9538 28.3675 80.8425V78.6791H28.7115V81.285H28.515L28.415 81.088C28.192 81.2639 27.912 81.3515 27.6285 81.334C26.989 81.334 26.7435 81.039 26.7435 80.5475V78.6791H27.0875L27.138 80.5475ZM30.285 79.7605C31.0225 79.8105 31.219 80.0555 31.219 80.498C31.219 80.8915 30.9735 81.285 30.1865 81.285C29.9171 81.2882 29.6499 81.2381 29.4 81.1376V80.8425C29.6553 80.9169 29.9207 80.9507 30.1865 80.9425C30.7275 80.9425 30.875 80.6971 30.875 80.451C30.875 80.205 30.825 80.0575 30.285 80.0085C29.5475 79.9585 29.4 79.6641 29.4 79.3201C29.4 78.9761 29.6455 78.5336 30.3835 78.5336C30.6372 78.5309 30.8885 78.5819 31.121 78.6835V78.9785C30.8811 78.9107 30.6328 78.8771 30.3835 78.8785C29.8915 78.8785 29.744 79.075 29.744 79.321C29.6915 79.6125 29.7895 79.711 30.2815 79.76L30.285 79.7605ZM33.135 81.285H32.8895C32.447 81.285 32.0535 81.0881 32.0535 80.5966V78.9246H31.5125V78.7745L32.0535 78.6271V77.9435L32.3975 77.8435V78.6796H33.1845V78.9745H32.3975V80.597C32.3975 80.892 32.545 81.0396 32.8895 81.0396H33.086L33.136 81.2855L33.135 81.285ZM34.6595 78.9246C34.3894 78.9115 34.12 78.962 33.873 79.072V78.777C34.1241 78.6809 34.3906 78.6309 34.6595 78.6295C35.446 78.6295 35.643 78.974 35.643 79.5145V81.285H35.446L35.346 81.088C35.109 81.2359 34.838 81.3206 34.559 81.334C33.871 81.334 33.674 80.9405 33.674 80.498C33.674 80.0555 33.92 79.7115 34.6085 79.7115L35.2965 79.6615V79.514C35.2475 79.0715 35.1 78.9241 34.6575 78.9241L34.6595 78.9246ZM34.5595 79.9081C34.2155 79.9581 34.019 80.154 34.019 80.449C34.019 80.695 34.069 80.9406 34.5595 80.9406C34.8009 80.9279 35.0363 80.8607 35.248 80.744V79.859L34.5595 79.9081ZM36.5265 77.597C36.5751 77.597 36.6227 77.6114 36.6631 77.6384C36.7036 77.6655 36.7351 77.704 36.7538 77.7489C36.7724 77.7939 36.7773 77.8433 36.7678 77.891C36.7583 77.9387 36.7348 77.9826 36.7004 78.017C36.666 78.0514 36.6222 78.0749 36.5745 78.0844C36.5267 78.0938 36.4773 78.0889 36.4323 78.0703C36.3874 78.0517 36.349 78.0202 36.3219 77.9797C36.2949 77.9393 36.2805 77.8917 36.2805 77.843C36.2845 77.7791 36.3116 77.7188 36.3568 77.6735C36.4019 77.6281 36.4621 77.6008 36.526 77.5966L36.5265 77.597ZM36.379 80.744V78.6791H36.723V80.7931C36.723 80.9901 36.773 81.0391 36.9195 81.0391V81.334C36.5755 81.284 36.379 81.1375 36.379 80.744ZM39.1325 79.3671C39.1325 79.0231 38.9355 78.9246 38.5915 78.9246C38.3528 78.9098 38.1147 78.9608 37.903 79.072V81.2355H37.559V78.6295H37.7555L37.8555 78.8265C38.0785 78.6506 38.3585 78.5631 38.642 78.5806C39.2815 78.5806 39.5275 78.8756 39.5275 79.3671V81.2355H39.183V79.3671H39.1325ZM41.05 78.9246C40.7797 78.9115 40.5102 78.962 40.263 79.072V78.777C40.5143 78.6809 40.7809 78.631 41.05 78.6295C41.8365 78.6295 42.0335 78.974 42.0335 79.5145V81.285H41.8365L41.7365 81.088C41.4995 81.2359 41.2285 81.3206 40.9495 81.334C40.261 81.334 40.0645 80.9405 40.0645 80.498C40.0645 80.0555 40.3105 79.7115 40.999 79.7115L41.687 79.6615V79.514C41.6395 79.0715 41.541 78.9241 41.0495 78.9241L41.05 78.9246ZM40.95 79.9081C40.606 79.9581 40.4095 80.154 40.4095 80.449C40.4095 80.695 40.4595 80.9406 40.95 80.9406C41.1914 80.9279 41.4268 80.8607 41.6385 80.744V79.859L40.95 79.9081ZM44.8345 79.958C44.8345 80.6955 44.5885 81.2855 43.753 81.2855C43.4727 81.2793 43.1999 81.194 42.966 81.0396L42.866 81.2361H42.669V77.3521H43.013V78.827C43.2357 78.6937 43.4914 78.6255 43.751 78.63C44.5895 78.58 44.8355 79.219 44.8355 79.957L44.8345 79.958ZM43.0645 79.0725V80.7936C43.2936 80.9053 43.5474 80.9569 43.802 80.9435C44.441 80.9435 44.4905 80.452 44.4905 79.911C44.4905 79.37 44.3905 78.8785 43.802 78.8785C43.5467 78.9016 43.2973 78.9682 43.0645 79.0756V79.0725ZM45.523 80.7445V77.3521H45.867V80.7445C45.867 80.941 45.917 80.9905 46.0635 80.9905V81.2855C45.9899 81.2969 45.9146 81.2907 45.8439 81.2675C45.7732 81.2442 45.709 81.2045 45.6565 81.1516C45.6041 81.0987 45.5649 81.0342 45.5422 80.9633C45.5195 80.8923 45.514 80.817 45.526 80.7435L45.523 80.7445ZM47.7355 78.5811C48.6205 78.5811 48.719 79.1711 48.719 79.9086V80.0585H46.998C46.998 80.501 47.148 80.9435 47.7355 80.9435C48.0218 80.9553 48.3071 80.9042 48.5715 80.7936V81.0885C48.3088 81.2045 48.022 81.2552 47.7355 81.2361C46.8505 81.2361 46.654 80.6461 46.654 79.9086C46.654 79.1711 46.8505 78.5811 47.7355 78.5811ZM46.998 79.8105H48.326C48.326 79.3675 48.276 78.925 47.6865 78.925C47.146 78.925 47.047 79.368 46.998 79.8105ZM50.44 81.2361V77.3521H51.5215C52.8 77.3521 53.144 78.1875 53.144 79.3185C53.144 80.4005 52.8 81.2855 51.5215 81.2855L50.44 81.2361ZM50.784 80.8921H51.5215C52.4555 80.8921 52.7505 80.2035 52.7505 79.2695C52.7505 78.3355 52.4555 77.647 51.5215 77.647H50.784V80.8921ZM54.6685 78.5811C55.5535 78.5811 55.6515 79.1711 55.6515 79.9086V80.0585H53.9305C53.9305 80.501 54.0805 80.9435 54.6685 80.9435C54.9546 80.9553 55.2398 80.9042 55.504 80.7936V81.0885C55.2415 81.2045 54.9548 81.2552 54.6685 81.2361C53.783 81.2361 53.5865 80.6461 53.5865 79.9086C53.5865 79.1711 53.7835 78.5811 54.6685 78.5811ZM53.9305 79.8105H55.2585C55.2585 79.3675 55.2085 78.925 54.619 78.925C54.0295 78.925 53.9305 79.368 53.9305 79.8105ZM56.389 78.63L57.1265 80.7445L57.8645 78.63H58.2575L57.225 81.2855H56.9795L55.9465 78.63H56.389ZM59.6345 78.5801C60.5195 78.5801 60.6175 79.17 60.6175 79.9075V80.0575H58.897C58.897 80.5 59.0445 80.9425 59.6345 80.9425C59.9206 80.9543 60.2058 80.9031 60.47 80.7925V81.0875C60.2075 81.2035 59.9208 81.2541 59.6345 81.235C58.7495 81.235 58.5525 80.645 58.5525 79.9075C58.5525 79.17 58.7495 78.5801 59.6345 78.5801ZM58.897 79.8096H60.226C60.226 79.3666 60.176 78.9241 59.5865 78.9241C58.997 78.9241 58.898 79.3671 58.898 79.8096H58.897ZM61.306 80.7435V77.3511H61.65V80.7435C61.65 80.94 61.7 80.9895 61.847 80.9895V81.2845C61.7733 81.2963 61.6979 81.2905 61.6269 81.2675C61.5559 81.2444 61.4914 81.2049 61.4387 81.1521C61.386 81.0993 61.3465 81.0346 61.3236 80.9636C61.3007 80.8926 61.295 80.8172 61.307 80.7435H61.306ZM63.5185 81.2845C62.6335 81.2845 62.437 80.7435 62.437 79.957C62.437 79.1705 62.6335 78.629 63.5185 78.629C64.4035 78.629 64.6005 79.17 64.6005 79.957C64.6005 80.744 64.4045 81.2845 63.5195 81.2845H63.5185ZM63.5185 78.9241C62.8305 78.9241 62.781 79.367 62.781 79.957C62.781 80.547 62.831 80.9895 63.5185 80.9895C64.206 80.9895 64.256 80.547 64.256 79.957C64.256 79.367 64.159 78.9241 63.5195 78.9241H63.5185ZM65.584 81.0875V82.5625H65.2395V78.6786H65.4365L65.5365 78.875C65.7735 78.7271 66.0444 78.6424 66.3235 78.629C67.159 78.629 67.405 79.219 67.405 79.957C67.405 80.695 67.159 81.2845 66.3235 81.2845C66.063 81.2956 65.8054 81.2269 65.585 81.0875H65.584ZM67.0095 79.957C67.0095 79.465 66.9095 78.9241 66.3215 78.9241C66.0671 78.9101 65.8134 78.9608 65.584 79.0715V80.7925C65.8131 80.9043 66.0669 80.956 66.3215 80.9425C66.9125 80.9895 67.0105 80.4485 67.0105 79.957H67.0095ZM71.0415 79.3666C71.0415 79.0226 70.845 78.9241 70.55 78.9241C70.3113 78.9092 70.0731 78.9602 69.8615 79.0715C69.8615 79.1715 69.9115 79.219 69.9115 79.3175V81.186H69.5675V79.3666C69.5675 79.0226 69.3705 78.9241 69.0755 78.9241C68.8374 78.9151 68.6009 78.9658 68.3875 79.0715V81.235H68.043V78.629H68.24L68.34 78.826C68.5515 78.6642 68.8111 78.5777 69.0775 78.5801C69.2151 78.5666 69.354 78.5864 69.4824 78.6377C69.6108 78.689 69.7251 78.7704 69.8155 78.875C70.0381 78.6928 70.3145 78.5892 70.602 78.5801C71.143 78.5801 71.438 78.8261 71.438 79.3666V81.235H71.0935L71.0415 79.3666ZM73.1065 78.5801C73.9915 78.5801 74.09 79.17 74.09 79.9075V80.0575H72.369C72.369 80.5 72.519 80.9425 73.1065 80.9425C73.3928 80.9543 73.6782 80.9031 73.9425 80.7925V81.0875C73.6798 81.2036 73.393 81.2541 73.1065 81.235C72.2215 81.235 72.025 80.645 72.025 79.9075C72.025 79.17 72.2215 78.5801 73.1065 78.5801ZM72.369 79.8096H73.6965C73.6965 79.3666 73.6465 78.9241 73.0575 78.9241C72.4685 78.9241 72.369 79.3671 72.369 79.8096ZM76.2535 79.3666C76.2535 79.0226 76.057 78.9241 75.7125 78.9241C75.4738 78.9093 75.2357 78.9603 75.024 79.0715V81.235H74.68V78.629H74.876L74.976 78.826C75.1992 78.6501 75.4793 78.5626 75.763 78.5801C76.402 78.5801 76.648 78.8751 76.648 79.3666V81.235H76.3035V79.3666H76.2535ZM78.6135 81.2845H78.3675C77.925 81.2845 77.532 81.0876 77.532 80.5961V78.9241H76.991V78.774L77.532 78.6266V77.9435L77.876 77.8435V78.6796H78.6625V78.9745H77.876V80.597C77.876 80.892 78.0235 81.0396 78.3675 81.0396H78.5645L78.6145 81.2855L78.6135 81.2845Z" fill="black"/>
</svg>
