<svg width="96" height="97" viewBox="0 0 96 97" fill="none" xmlns="http://www.w3.org/2000/svg">
<path d="M47.844 0.915527H95.422V48.4935C95.422 61.112 90.4093 73.2136 81.4867 82.1362C72.5641 91.0588 60.4625 96.0715 47.844 96.0715H0.265991V48.4935C0.265991 35.8751 5.27866 23.7734 14.2013 14.8508C23.1239 5.92819 35.2255 0.915527 47.844 0.915527Z" fill="#F03E1D"/>
<path d="M17.727 63.708C15.958 63.708 14.752 64.3516 14.027 65.4771V58.965H21.5845V55.347H10.009V70.0595H14.0285V69.4965C14.0285 67.969 14.752 67.085 15.958 67.085C17.325 67.085 17.808 68.0495 17.808 69.4165V75.687C17.808 77.054 17.326 78.0186 15.958 78.0186C14.4305 78.0186 13.948 77.054 13.948 75.446V72.1495H9.92847V75.1245C9.92847 79.064 11.5365 81.6365 15.958 81.6365C20.3795 81.6365 22.229 79.305 22.229 75.6865V69.496C22.229 65.3155 20.1385 63.7075 17.729 63.7075" fill="white"/>
<path d="M27.248 70.9435H31.509V72.3904H29.017V75.4455H30.7855V76.8925H29.017V80.1085H31.509V81.5555H27.248V70.9435ZM34.323 82.1985V81.475C32.876 81.234 32.313 80.189 32.313 78.7415V73.5965C32.313 71.908 33.117 70.7825 34.966 70.7825C36.815 70.7825 37.6995 71.9885 37.6995 73.5965V78.7415C37.6995 79.8675 37.2995 80.8319 36.4135 81.2339L37.6995 81.475V82.7615L34.323 82.1985ZM35.931 79.1435V73.355C35.931 72.712 35.6895 72.2295 35.0465 72.2295C34.4035 72.2295 34.162 72.712 34.162 73.355V79.1435C34.162 79.787 34.4035 80.269 35.0465 80.269C35.6895 80.269 35.931 79.7875 35.931 79.1435ZM44.051 70.9435V78.9025C44.051 80.5105 43.3275 81.636 41.5585 81.636C39.7085 81.636 38.9055 80.591 38.9055 78.9025V70.9435H40.6745V79.1435C40.6745 79.787 40.9155 80.189 41.5585 80.189C42.2015 80.189 42.443 79.789 42.443 79.1435V70.9435H44.051ZM44.935 81.475L46.945 70.9435H48.955L50.965 81.475H49.115L48.793 79.5455H46.943L46.6215 81.475H44.935ZM47.185 78.179H48.632L47.9085 73.918L47.1845 78.179H47.185ZM51.848 70.9435H53.6165V80.028H55.707V81.475H51.848V70.9435ZM56.6715 70.9435H58.444V81.475H56.675L56.6715 70.9435ZM59.405 70.9435H64.1485V72.3904H62.6985V81.475H60.934V72.3935H59.487V70.9435H59.405ZM68.57 77.4554V81.475H66.8015V77.4554L64.794 70.9435H66.644L67.689 74.963L68.7345 70.9435H70.4225L68.5725 77.4554H68.57Z" fill="white"/>
<path d="M29.9815 60.3315H32.474V65.9595H31.1875V64.8336C31.1131 65.2179 30.8999 65.5614 30.5885 65.7987C30.2771 66.036 29.8893 66.1504 29.499 66.1201C27.9715 66.1201 27.249 64.914 27.249 63.306V58.161C27.249 56.4725 28.053 55.347 29.902 55.347C31.8315 55.347 32.475 56.4725 32.475 58V58.965H30.867V57.9196C30.867 57.2766 30.626 56.8745 29.9825 56.8745C29.339 56.8745 29.0985 57.357 29.0985 58V63.708C29.0985 64.3515 29.3395 64.8336 29.9825 64.8336C30.5455 64.8336 30.867 64.512 30.867 63.7885V61.9385H30.063V60.3305L29.9815 60.3315ZM33.6815 55.4276H37.9425V56.8745H35.45V59.9295H37.2185V61.3765H35.45V64.5925H37.9425V66.0396H33.6815V55.4276ZM40.515 59.367V66.0396H38.9875V55.5081H40.756L42.6855 61.5375V55.5081H44.1325V66.0396H42.605L40.515 59.367ZM50.645 58.2415V63.1455C50.645 64.7535 50.0015 65.9595 48.072 65.9595H45.3385V55.4276H48.072C50 55.4276 50.644 56.6335 50.644 58.2435L50.645 58.2415ZM47.831 64.512C47.9725 64.5301 48.1163 64.5156 48.2513 64.4695C48.3864 64.4234 48.5091 64.3469 48.61 64.246C48.7109 64.1451 48.7873 64.0224 48.8334 63.8874C48.8795 63.7524 48.8941 63.6086 48.876 63.467V57.9196C48.876 57.2766 48.635 56.8745 47.831 56.8745H47.1075V64.512H47.831ZM51.851 55.4276H56.112V56.8745H53.6195V59.9295H55.388V61.3765H53.6195V64.5925H56.112V66.0396H51.851V55.4276ZM58.9255 61.1356V65.9595H57.157V55.4276H59.7295C61.4985 55.4276 62.1415 56.312 62.1415 57.759V59.1255C62.1415 60.251 61.7415 60.8946 60.6945 61.1356L62.3825 65.9595H60.5325L58.9245 61.1356H58.9255ZM58.9255 56.8745V60.171H59.4885C59.609 60.1905 59.7325 60.1811 59.8486 60.1435C59.9648 60.1059 60.0704 60.0413 60.1567 59.9549C60.243 59.8685 60.3076 59.7629 60.3451 59.6467C60.3826 59.5305 60.392 59.4071 60.3725 59.2866V57.759C60.392 57.6385 60.3826 57.5151 60.3451 57.3989C60.3076 57.2827 60.243 57.177 60.1567 57.0906C60.0704 57.0043 59.9648 56.9397 59.8486 56.9021C59.7325 56.8645 59.609 56.855 59.4885 56.8745H58.9255Z" fill="white"/>
<path d="M63.174 7.715H53.424C53.386 7.71725 53.3502 7.73338 53.3233 7.76028C53.2964 7.78719 53.2803 7.82301 53.278 7.86099V11.0785C53.2803 11.1165 53.2964 11.1523 53.3233 11.1792C53.3502 11.2061 53.386 11.2222 53.424 11.2245H57.324L53.035 15.514C51.4889 14.2996 49.6834 13.4583 47.759 13.0558C45.8346 12.6532 43.8433 12.7002 41.9401 13.1931C40.0368 13.686 38.273 14.6115 36.7859 15.8975C35.2989 17.1835 34.1287 18.7954 33.3664 20.6077C32.6041 22.4199 32.2704 24.3836 32.3912 26.3459C32.512 28.3083 33.084 30.2162 34.0628 31.9213C35.0415 33.6264 36.4005 35.0826 38.0341 36.1766C39.6677 37.2705 41.5317 37.9727 43.481 38.2285V41.982H39.631C39.593 41.9843 39.5572 42.0003 39.5303 42.0273C39.5034 42.0542 39.4873 42.09 39.485 42.128V45.589C39.4871 45.6271 39.5032 45.663 39.5301 45.69C39.557 45.717 39.5929 45.7332 39.631 45.7355H43.481V49.391C43.4831 49.4291 43.4992 49.465 43.5261 49.492C43.553 49.519 43.5889 49.5352 43.627 49.5375H47.088C47.126 49.5351 47.1619 49.5189 47.1888 49.4919C47.2157 49.4649 47.2317 49.4291 47.234 49.391V45.7355H51.084C51.122 45.7331 51.1579 45.7169 51.1848 45.6899C51.2117 45.6629 51.2278 45.6271 51.23 45.589V42.128C51.2277 42.09 51.2116 42.0542 51.1847 42.0273C51.1578 42.0003 51.122 41.9843 51.084 41.982H47.234V38.182C49.3661 37.8312 51.3741 36.9441 53.0692 35.6041C54.7643 34.2641 56.0909 32.5152 56.9244 30.5216C57.7579 28.528 58.0709 26.3553 57.834 24.2075C57.597 22.0598 56.818 20.0075 55.57 18.2435L59.8105 14.003V17.61C59.8129 17.648 59.8291 17.6839 59.8561 17.7108C59.8831 17.7377 59.919 17.7538 59.957 17.756H63.174C63.212 17.7538 63.2478 17.7376 63.2747 17.7107C63.3016 17.6838 63.3177 17.648 63.32 17.61V7.85999C63.3177 7.822 63.3016 7.78618 63.2747 7.75928C63.2478 7.73237 63.212 7.71625 63.174 7.71399M45.1385 34.964C43.2777 34.9645 41.4585 34.4132 39.9111 33.3797C38.3636 32.3463 37.1574 30.8772 36.4449 29.1581C35.7324 27.4391 35.5457 25.5474 35.9084 23.7223C36.2711 21.8972 37.1669 20.2206 38.4825 18.9046C39.7981 17.5886 41.4743 16.6923 43.2994 16.329C45.1244 15.9657 47.0161 16.1519 48.7354 16.8638C50.4546 17.5757 51.9241 18.7815 52.958 20.3286C53.992 21.8757 54.5439 23.6947 54.544 25.5555C54.5341 28.0476 53.5397 30.4347 51.7775 32.1969C50.0153 33.959 47.6281 34.9533 45.136 34.963" fill="white"/>
<path d="M50.939 21.7045H39.582C39.532 21.7045 39.4355 21.7545 39.4355 21.8045V24.583C39.4355 24.633 39.4855 24.683 39.582 24.683H50.988C51.038 24.683 51.134 24.633 51.134 24.583V21.8045C51.1112 21.7741 51.0818 21.7493 51.048 21.732C51.0142 21.7146 50.977 21.7052 50.939 21.7045ZM50.939 26.6275H39.582C39.532 26.6275 39.4355 26.6775 39.4355 26.7275V29.506C39.4355 29.556 39.4855 29.606 39.582 29.606H50.988C51.038 29.606 51.134 29.556 51.134 29.506V26.7275C51.111 26.6973 51.0816 26.6726 51.0479 26.6553C51.0141 26.638 50.9769 26.6285 50.939 26.6275Z" fill="white"/>
</svg>
