<svg width="356" height="514" viewBox="0 0 356 514" fill="none" xmlns="http://www.w3.org/2000/svg">
<g style="mix-blend-mode:hard-light">
<path d="M201.919 257.298C201.919 200.621 155.974 154.676 99.2973 154.676C42.621 154.676 -3.32425 200.621 -3.32425 257.298C-3.32425 313.974 42.621 359.919 99.2973 359.919V369.438C37.364 369.438 -12.8428 319.231 -12.8428 257.298C-12.8428 195.364 37.364 145.157 99.2973 145.157C161.231 145.157 211.437 195.364 211.437 257.298C211.437 319.231 161.231 369.438 99.2973 369.438V359.919C155.974 359.919 201.919 313.974 201.919 257.298Z" fill="url(#paint0_linear_3_856)"/>
<path d="M228.905 257.298C228.905 185.717 170.878 127.69 99.2978 127.69C27.7176 127.69 -30.3096 185.717 -30.3096 257.298C-30.3096 328.878 27.7176 386.905 99.2978 386.905V396.803C22.2509 396.803 -40.208 334.344 -40.208 257.298C-40.208 180.251 22.2509 117.792 99.2978 117.792C176.345 117.792 238.804 180.251 238.804 257.298C238.804 334.344 176.345 396.803 99.2978 396.803V386.905C170.878 386.905 228.905 328.878 228.905 257.298Z" fill="url(#paint1_linear_3_856)"/>
<path d="M254.024 257.298C254.024 171.845 184.75 102.571 99.2976 102.571C13.8447 102.571 -55.4286 171.845 -55.4286 257.298C-55.4286 342.75 13.8447 412.024 99.2976 412.024V421.789C8.45119 421.789 -65.1943 348.144 -65.1943 257.298C-65.1943 166.451 8.45119 92.8057 99.2976 92.8057C190.144 92.8057 263.789 166.451 263.789 257.298C263.789 348.144 190.144 421.789 99.2976 421.789V412.024C184.75 412.024 254.024 342.75 254.024 257.298Z" fill="url(#paint2_linear_3_856)"/>
<path d="M280.799 257.297C280.799 157.057 199.538 75.7961 99.2979 75.7961C-0.94252 75.7961 -82.2034 157.057 -82.2034 257.297C-82.2034 357.538 -0.94252 438.799 99.2979 438.799V448.56C-6.3336 448.56 -91.9648 362.929 -91.9648 257.297C-91.9648 151.666 -6.3336 66.0347 99.2979 66.0347C204.929 66.0347 290.561 151.666 290.561 257.297C290.561 362.929 204.929 448.56 99.2979 448.56V438.799C199.538 438.799 280.799 357.538 280.799 257.297Z" fill="url(#paint3_linear_3_856)"/>
<path d="M313.99 257C313.99 138.264 217.736 42.0096 99 42.0096C-19.7359 42.0096 -115.99 138.264 -115.99 257C-115.99 375.736 -19.7359 471.99 99 471.99V481.875C-25.195 481.875 -125.875 381.195 -125.875 257C-125.875 132.805 -25.195 32.125 99 32.125C223.195 32.125 323.875 132.805 323.875 257C323.875 381.195 223.195 481.875 99 481.875V471.99C217.736 471.99 313.99 375.736 313.99 257Z" fill="url(#paint4_linear_3_856)"/>
<path d="M346.186 257C346.186 120.483 235.517 9.81384 99 9.81384C-37.5171 9.81384 -148.186 120.483 -148.186 257C-148.186 393.517 -37.5171 504.186 99 504.186V514C-42.9372 514 -158 398.937 -158 257C-158 115.063 -42.9372 0 99 0C240.937 0 356 115.063 356 257C356 398.937 240.937 514 99 514V504.186C235.517 504.186 346.186 393.517 346.186 257Z" fill="url(#paint5_linear_3_856)"/>
</g>
<defs>
<linearGradient id="paint0_linear_3_856" x1="42.5727" y1="126.395" x2="168.458" y2="305.077" gradientUnits="userSpaceOnUse">
<stop stop-color="#B6E6F7"/>
<stop offset="1" stop-color="#134A83"/>
</linearGradient>
<linearGradient id="paint1_linear_3_856" x1="28.7306" y1="94.4503" x2="185.335" y2="316.737" gradientUnits="userSpaceOnUse">
<stop stop-color="#B6E6F7"/>
<stop offset="1" stop-color="#134A83"/>
</linearGradient>
<linearGradient id="paint2_linear_3_856" x1="16.0915" y1="65.2837" x2="200.745" y2="327.383" gradientUnits="userSpaceOnUse">
<stop stop-color="#B6E6F7"/>
<stop offset="1" stop-color="#134A83"/>
</linearGradient>
<linearGradient id="paint3_linear_3_856" x1="2.55019" y1="34.0335" x2="217.256" y2="338.789" gradientUnits="userSpaceOnUse">
<stop stop-color="#B6E6F7"/>
<stop offset="1" stop-color="#134A83"/>
</linearGradient>
<linearGradient id="paint4_linear_3_856" x1="-14.75" y1="-5.49999" x2="237.687" y2="352.813" gradientUnits="userSpaceOnUse">
<stop stop-color="#B6E6F7"/>
<stop offset="1" stop-color="#134A83"/>
</linearGradient>
<linearGradient id="paint5_linear_3_856" x1="-31" y1="-43" x2="257.5" y2="366.5" gradientUnits="userSpaceOnUse">
<stop stop-color="#B6E6F7"/>
<stop offset="1" stop-color="#134A83"/>
</linearGradient>
</defs>
</svg>
