<svg width="1440" height="1603" viewBox="0 0 1440 1603" fill="none" xmlns="http://www.w3.org/2000/svg">
<g style="mix-blend-mode:hard-light" opacity="0.1">
<mask id="mask0_1278_1067" style="mask-type:luminance" maskUnits="userSpaceOnUse" x="0" y="-4" width="1441" height="1607">
<path d="M1440 -3.22729H0V1602.3H1440V-3.22729Z" fill="white"/>
</mask>
<g mask="url(#mask0_1278_1067)">
<path d="M1175.22 459.268L608.417 -633.624L590.753 -599.566L1157.56 493.326L1175.22 459.268Z" fill="#25B8E4"/>
<path d="M1139.9 527.384L573.091 -565.509L555.427 -531.45L1122.23 561.442L1139.9 527.384Z" fill="#25B8E4"/>
<path d="M1104.57 595.496L537.763 -497.396L520.099 -463.338L1086.91 629.555L1104.57 595.496Z" fill="#25B8E4"/>
<path d="M1069.22 663.616L502.417 -429.277L484.753 -395.218L1051.56 697.674L1069.22 663.616Z" fill="#25B8E4"/>
<path d="M1033.9 731.762L467.091 -361.13L449.427 -327.072L1016.23 765.82L1033.9 731.762Z" fill="#25B8E4"/>
<path d="M1495.24 -95.2318L288.227 2232.08L305.891 2266.14L1512.91 -61.1735L1495.24 -95.2318Z" fill="#25B8E4"/>
<path d="M1530.57 -27.0854L323.554 2300.23L341.217 2334.29L1548.23 6.97295L1530.57 -27.0854Z" fill="#25B8E4"/>
<path d="M1565.9 41.0309L358.882 2368.35L376.545 2402.4L1583.56 75.0892L1565.9 41.0309Z" fill="#25B8E4"/>
<path d="M1601.25 109.146L394.229 2436.46L411.893 2470.52L1618.91 143.204L1601.25 109.146Z" fill="#25B8E4"/>
<path d="M1636.57 177.26L429.554 2504.58L447.217 2538.63L1654.23 211.319L1636.57 177.26Z" fill="#25B8E4"/>
<path d="M1671.9 245.38L464.881 2572.7L482.544 2606.75L1689.56 279.438L1671.9 245.38Z" fill="#25B8E4"/>
</g>
</g>
</svg>
